<svg width="24" height="24" viewBox="0 0 24 24" fill="none" xmlns="http://www.w3.org/2000/svg">
<path d="M11.314 3.12063C11.7761 2.6467 12.3278 2.26926 12.9369 2.01019C13.546 1.75111 14.2006 1.61557 14.8625 1.61143C15.5244 1.60728 16.1806 1.73461 16.7929 1.98603C17.4052 2.23744 17.9616 2.60795 18.4296 3.07604C18.8976 3.54414 19.2681 4.10051 19.5194 4.71288C19.7707 5.32525 19.898 5.98144 19.8937 6.64336C19.8895 7.30529 19.7538 7.95979 19.4947 8.56889C19.2355 9.17799 18.858 9.72957 18.384 10.1916L10.607 17.9696C10.3293 18.252 9.99844 18.4765 9.63352 18.6303C9.26859 18.7842 8.87682 18.8642 8.4808 18.8659C8.08479 18.8675 7.69236 18.7908 7.32616 18.64C6.95996 18.4892 6.62723 18.2675 6.34716 17.9875C6.0671 17.7075 5.84525 17.3748 5.6944 17.0086C5.54355 16.6425 5.46669 16.2501 5.46826 15.854C5.46982 15.458 5.54978 15.0662 5.70352 14.7013C5.85726 14.3363 6.08174 14.0054 6.36401 13.7276L14.142 5.94963L15.556 7.36363L7.77801 15.1416C7.6825 15.2339 7.60631 15.3442 7.55391 15.4662C7.5015 15.5882 7.47391 15.7194 7.47276 15.8522C7.4716 15.985 7.4969 16.1167 7.54718 16.2396C7.59747 16.3625 7.67172 16.4741 7.76561 16.568C7.8595 16.6619 7.97116 16.7362 8.09405 16.7865C8.21695 16.8367 8.34863 16.862 8.48141 16.8609C8.61419 16.8597 8.74541 16.8321 8.86741 16.7797C8.98942 16.7273 9.09976 16.6511 9.19201 16.5556L16.971 8.77763C17.2496 8.49903 17.4706 8.16828 17.6214 7.80428C17.7722 7.44027 17.8498 7.05013 17.8498 6.65613C17.8498 6.26213 17.7722 5.87199 17.6214 5.50798C17.4706 5.14397 17.2496 4.81323 16.971 4.53463C16.6924 4.25603 16.3617 4.03503 15.9977 3.88426C15.6336 3.73348 15.2435 3.65587 14.8495 3.65587C14.4555 3.65587 14.0654 3.73348 13.7014 3.88426C13.3374 4.03503 13.0066 4.25603 12.728 4.53463L4.95001 12.3136C4.03922 13.2566 3.53524 14.5197 3.54664 15.8306C3.55803 17.1416 4.08387 18.3957 5.01091 19.3227C5.93795 20.2498 7.19202 20.7756 8.503 20.787C9.81398 20.7984 11.077 20.2944 12.02 19.3836L20.506 10.8986L21.92 12.3136L13.435 20.7986C12.1222 22.1115 10.3416 22.849 8.48501 22.849C6.6284 22.849 4.84783 22.1115 3.53501 20.7986C2.22219 19.4858 1.48465 17.7052 1.48465 15.8486C1.48465 13.992 2.22219 12.2115 3.53501 10.8986L11.314 3.12063Z" fill="#263238"/>
</svg>
