<svg width="48" height="50" viewBox="0 0 48 50" fill="none" xmlns="http://www.w3.org/2000/svg">
<path d="M2.69248 16.4773C2.82383 16.1801 2.29844 15.8236 2.44141 15.5328C6.33867 7.60479 14.495 2.14844 23.9258 2.14844C37.1396 2.14844 47.8516 12.8604 47.8516 26.0742C47.8516 26.9337 47.8063 27.7826 47.7179 28.6187H0.789844C0.704955 27.7941 0.662484 26.9656 0.662598 26.1365C0.662598 22.6993 1.3874 19.4314 2.69248 16.4773Z" fill="#93D0FD"/>
<path d="M47.754 28.25C47.0752 35.7795 42.9083 42.3031 36.8814 46.1923C36.5414 46.4117 35.9442 45.5444 35.5926 45.7468C32.0836 47.7665 28.656 48.6059 24.3166 48.6059C23.4588 48.6059 22.6118 48.5607 21.7774 48.4728C21.4274 48.4358 20.6889 49.7855 20.3436 49.7337C12.7189 48.589 6.27183 43.8463 2.78608 37.2895C2.68149 37.0927 2.63423 36.4057 2.53501 36.2057C2.16421 35.4583 1.95815 35.0725 1.66567 34.2833C1.60991 34.1328 1.37407 34.0866 1.32124 33.9347C0.999124 33.0082 0.734718 32.0627 0.529541 31.1036C0.503564 30.982 1.52368 30.8602 1.49956 30.7379C1.33715 29.9154 1.21811 29.085 1.14292 28.25H47.754Z" fill="#65BEFC"/>
<path d="M16.8187 29.9375H18.2836V40.9604C18.2836 41.0122 18.263 41.0619 18.2264 41.0986C18.1897 41.1352 18.1401 41.1558 18.0883 41.1558H17.014C16.9622 41.1558 16.9126 41.1352 16.8759 41.0986C16.8393 41.0619 16.8187 41.0122 16.8187 40.9604V34.826H2.78601V37.2885C2.21229 36.2095 1.72256 35.0879 1.32117 33.9337V29.9376H2.78601V33.3612H16.8187V29.9375ZM39.4383 29.9375V33.3611H25.4054V29.9375H23.9406V40.9604C23.9406 41.0122 23.9612 41.0619 23.9978 41.0986C24.0344 41.1352 24.0841 41.1558 24.1359 41.1558H25.2101C25.2619 41.1558 25.3116 41.1352 25.3482 41.0986C25.3849 41.0619 25.4054 41.0122 25.4054 40.9604V34.826H39.4382V40.9604C39.4382 41.0122 39.4587 41.0619 39.4954 41.0986C39.532 41.1352 39.5817 41.1558 39.6335 41.1558H40.7077C40.7595 41.1558 40.8092 41.1352 40.8458 41.0986C40.8824 41.0619 40.903 41.0122 40.903 40.9604V29.9375H39.4383Z" fill="#72443B"/>
<path d="M1.57153 19.8913V13.8774C1.57153 13.244 2.09624 12.7305 2.74341 12.7305C3.39058 12.7305 3.91528 13.2439 3.91528 13.8774V19.8913H1.57153Z" fill="#00C53B"/>
<path d="M7.49849 14.4407H2.05981C1.93031 14.4407 1.80612 14.3892 1.71455 14.2976C1.62298 14.2061 1.57153 14.0819 1.57153 13.9524V11.6177C1.57153 10.4438 2.38784 9.43597 3.51499 9.21859L5.55161 8.81986C5.55522 8.81918 5.60728 8.81703 5.61099 8.81634C6.59263 8.63363 7.49839 9.39213 7.49839 10.3907V14.4407H7.49849Z" fill="#00C53B"/>
<path d="M13.6786 14.44H4.35659C4.08589 14.4397 3.86646 14.2212 3.86646 13.9517V10.6094L3.86655 10.5915C3.87261 9.74025 4.50269 9.01945 5.34263 8.859L5.55923 8.81759C5.91763 8.7491 6.27893 8.6968 6.64204 8.66085H6.64224C7.80354 8.54569 8.97538 8.59848 10.1216 8.81759L12.2166 9.21779C13.3491 9.43527 14.1693 10.443 14.1693 11.6169V13.9516C14.1692 14.2213 13.9496 14.44 13.6786 14.44Z" fill="#4BCD5C"/>
<path d="M11.8254 19.8913V13.8774C11.8254 13.244 12.3501 12.7305 12.9973 12.7305C13.6445 12.7305 14.1692 13.2439 14.1692 13.8774V19.8913H11.8254Z" fill="#74D579"/>
<path d="M11.8743 11.4688V21.9823H3.86646V11.4688H11.8743Z" fill="#4BCD5C"/>
<path d="M11.4653 3.59482V4.72119C11.4653 6.29619 10.4523 7.63457 9.04233 8.12061V9.3417C9.04233 9.98887 8.51763 10.5136 7.87046 10.5136C7.22329 10.5136 6.69858 9.98887 6.69858 9.3417V8.12061C5.28862 7.63467 4.27563 6.29629 4.27563 4.72119V3.59482C4.27563 1.60947 5.88511 0 7.87046 0C9.85581 0 11.4653 1.60947 11.4653 3.59482Z" fill="#FFBFAB"/>
<path d="M11.4943 3.52002V4.79941C11.4943 6.32646 10.4315 7.63564 9.04224 8.12227C7.65298 7.63564 6.69849 6.32646 6.69849 4.79941V3.52002C6.69849 1.99297 7.69253 0.697559 9.08179 0.210938C10.4711 0.697656 11.4943 1.99297 11.4943 3.52002Z" fill="#FFCEBF"/>
<path d="M1.57153 16.4141C1.57153 15.7669 2.08501 15.2422 2.71851 15.2422H7.47925C8.11274 15.2422 8.62622 15.7669 8.62622 16.4141C8.62622 17.0612 8.11274 17.5859 7.47925 17.5859H2.71851C2.08501 17.5859 1.57153 17.0611 1.57153 16.4141Z" fill="#00C53B"/>
<path d="M12.9886 17.5859H8.2279C7.59441 17.5859 7.08093 17.0612 7.08093 16.4141C7.08093 15.7669 7.59441 15.2422 8.2279 15.2422H12.9886C13.622 15.2422 14.1356 15.7669 14.1356 16.4141C14.1356 17.0612 13.622 17.5859 12.9886 17.5859Z" fill="#74D579"/>
<path d="M5.52747 16.4164C5.52747 16.1134 5.64006 15.8373 5.82473 15.6292C5.83791 15.6118 5.85247 15.5952 5.86829 15.5794L6.66399 14.7837C6.73931 14.7084 6.83722 14.6597 6.94277 14.6452C7.04833 14.6307 7.15573 14.6511 7.24861 14.7033C7.34149 14.7555 7.41474 14.8366 7.45718 14.9344C7.49963 15.0321 7.50895 15.141 7.48372 15.2445H7.65491C8.28831 15.2445 8.80188 15.7693 8.80188 16.4164C8.80188 17.0636 8.2884 17.5883 7.65491 17.5883H6.67444C6.04094 17.5883 5.52747 17.0636 5.52747 16.4164Z" fill="#FFA78F"/>
<path d="M9.29199 17.5883H8.31152C7.67813 17.5883 7.16455 17.0636 7.16455 16.4164C7.16455 15.7693 7.67803 15.2445 8.31152 15.2445H8.48271C8.45748 15.141 8.4668 15.0321 8.50925 14.9344C8.55169 14.8366 8.62494 14.7555 8.71782 14.7033C8.8107 14.6511 8.9181 14.6307 9.02366 14.6452C9.12921 14.6597 9.22712 14.7084 9.30244 14.7837L10.0981 15.5794C10.114 15.5952 10.1285 15.6119 10.1417 15.6292C10.334 15.8463 10.4398 16.1264 10.439 16.4164C10.439 17.0636 9.92549 17.5883 9.29199 17.5883Z" fill="#FFBFAB"/>
<path d="M28.5226 14.3735V16.6894C28.5226 17.3229 27.9979 17.8363 27.3507 17.8363C26.7035 17.8363 26.1788 17.3229 26.1788 16.6894V14.3735C26.1788 13.7401 26.7035 13.2266 27.3507 13.2266C27.9979 13.2266 28.5226 13.74 28.5226 14.3735Z" fill="#BB5D4C"/>
<path d="M32.1057 10.3814V14.4416H26.1788V11.6186C26.1788 10.4447 26.9951 9.43687 28.1223 9.21948L30.2072 8.81929L30.2183 8.81724C31.1986 8.63199 32.1057 9.38374 32.1057 10.3814Z" fill="#FFAA00"/>
<path d="M36.4816 9.15245V21.9825H28.4738V10.6094L28.4739 10.5915C28.4799 9.74025 29.11 9.01945 29.9499 8.859L30.1665 8.81759C30.5249 8.74911 30.8862 8.69681 31.2493 8.66085H31.2495C32.4108 8.54569 33.5827 8.59848 34.7289 8.81759L36.4816 9.15245Z" fill="#FFB509"/>
<path d="M33.6495 8.12061V9.3418C33.6495 9.98897 33.1248 10.5137 32.4776 10.5137C31.8305 10.5137 31.3058 9.98897 31.3058 9.3418V8.12061C29.8958 7.63467 28.8828 6.29629 28.8828 4.72119V3.59482C28.8828 1.60947 30.4923 0 32.4776 0C32.898 0 33.3141 0.072168 33.6891 0.204883C33.7558 0.228516 33.8091 0.254004 33.8739 0.28125C32.5821 0.82627 31.6754 2.10459 31.6754 3.59482V4.72119C31.6754 5.13486 31.7453 5.53213 31.8738 5.90205C32.0561 5.79222 32.2649 5.73434 32.4776 5.73467C33.1248 5.73467 33.6495 6.25938 33.6495 6.90654V7.93076C33.7229 7.96787 33.7255 8.09434 33.6495 8.12061Z" fill="#BB5D4C"/>
<path d="M36.0725 3.5166V4.796C36.0725 6.32305 35.0389 7.63223 33.6495 8.11885C32.2603 7.63223 31.3058 6.32305 31.3058 4.796V3.5166C31.3058 1.98955 32.2998 0.689746 33.6891 0.203125C35.0784 0.689844 36.0725 1.98955 36.0725 3.5166Z" fill="#C96E59"/>
<path d="M44.4466 2.03125C44.4466 5.44268 42.4345 8.42734 39.4513 10.0219C39.4125 10.0427 39.1868 9.86553 39.1475 9.88584C39.045 9.93896 38.9414 9.99043 38.8367 10.0402C38.4613 9.35811 38.3614 9.05391 38.0526 8.3333C38.1051 8.30861 38.1573 8.28335 38.2093 8.25752C38.2418 8.24131 38.2176 8.02451 38.2498 8.00791C40.5494 6.82305 42.1029 4.58789 42.1029 2.03125H44.4466Z" fill="#BB5D4C"/>
<path d="M44.4466 1.21729V2.19775C44.4466 2.83115 43.9219 3.34473 43.2747 3.34473C43.1065 3.34528 42.9401 3.30984 42.7866 3.24079C42.6332 3.17173 42.4963 3.07065 42.3852 2.94434C42.3666 2.93042 42.349 2.91518 42.3326 2.89873L41.6421 2.2082C41.5668 2.13288 41.5181 2.03497 41.5036 1.92942C41.4891 1.82386 41.5095 1.71646 41.5617 1.62358C41.6139 1.5307 41.695 1.45746 41.7928 1.41501C41.8905 1.37256 41.9994 1.36324 42.1029 1.38848V1.21729C42.1029 0.583887 42.6277 0.0703125 43.2748 0.0703125C43.922 0.0703125 44.4466 0.583887 44.4466 1.21729Z" fill="#C96E59"/>
<path d="M39.4512 10.0218C37.9886 10.8035 36.2925 11.2513 34.4856 11.2513V8.90752C35.8538 8.90752 37.1387 8.58018 38.2497 8.00781L39.4512 10.0218Z" fill="#FFB509"/>
<path d="M33.2335 16.4141C33.2335 17.0612 32.72 17.5859 32.0865 17.5859H27.3258C26.6924 17.5859 26.1788 17.0612 26.1788 16.4141C26.1788 15.7669 26.6923 15.2422 27.3258 15.2422H32.0865C32.72 15.2422 33.2335 15.767 33.2335 16.4141Z" fill="#BB5D4C"/>
<path d="M34.2689 16.4164C34.2689 17.0636 33.7554 17.5883 33.1219 17.5883H32.1415C31.5081 17.5883 30.9945 17.0636 30.9945 16.4164C30.9945 16.1134 31.1071 15.8373 31.2918 15.6292C31.305 15.6118 31.3195 15.5952 31.3353 15.5794L32.1309 14.7837C32.2063 14.7084 32.3042 14.6597 32.4097 14.6452C32.5153 14.6307 32.6227 14.6511 32.7156 14.7033C32.8084 14.7555 32.8817 14.8366 32.9241 14.9344C32.9666 15.0321 32.9759 15.141 32.9507 15.2445H33.1219C33.7554 15.2445 34.2689 15.7693 34.2689 16.4164Z" fill="#C96E59"/>
<path d="M0 26.0742C0 24.1403 0.229492 22.26 0.662598 20.459C0.677539 20.3971 1.30078 20.3352 1.31611 20.2734C1.38616 19.9921 1.46136 19.7121 1.5417 19.4336H4.12002C4.24952 19.4336 4.37372 19.485 4.46529 19.5766C4.55686 19.6682 4.6083 19.7924 4.6083 19.9219V30.6152C4.6083 30.7447 4.55686 30.8689 4.46529 30.9605C4.37372 31.0521 4.24952 31.1035 4.12002 31.1035H0.529492C0.182617 29.4819 0 27.7994 0 26.0742ZM31.2043 19.4336H23.5352C23.4057 19.4336 23.2815 19.485 23.1899 19.5766C23.0983 19.6682 23.0469 19.7924 23.0469 19.9219V30.6152C23.0469 30.7447 23.0983 30.8689 23.1899 30.9605C23.2815 31.0521 23.4057 31.1035 23.5352 31.1035H31.2043C31.3338 31.1035 31.458 31.0521 31.5496 30.9605C31.6411 30.8689 31.6926 30.7447 31.6926 30.6152V19.9219C31.6926 19.7924 31.6411 19.6682 31.5496 19.5766C31.458 19.485 31.3338 19.4336 31.2043 19.4336Z" fill="#7E4C42"/>
<path d="M17.0899 31.1035H4.05591C3.92641 31.1035 3.80221 31.0521 3.71064 30.9605C3.61907 30.8689 3.56763 30.7447 3.56763 30.6152V19.9219C3.56763 19.7924 3.61907 19.6682 3.71064 19.5766C3.80221 19.485 3.92641 19.4336 4.05591 19.4336H17.0899C17.2194 19.4336 17.3436 19.485 17.4352 19.5766C17.5267 19.6682 17.5782 19.7924 17.5782 19.9219V30.6152C17.5782 30.7447 17.5267 30.8689 17.4352 30.9605C17.3436 31.0521 17.2194 31.1035 17.0899 31.1035ZM41.7969 30.6152V19.9219C41.7969 19.7924 41.7455 19.6682 41.6539 19.5766C41.5623 19.485 41.4381 19.4336 41.3086 19.4336H31.483C31.3535 19.4336 31.2293 19.485 31.1377 19.5766C31.0461 19.6682 30.9947 19.7924 30.9947 19.9219V30.6152C30.9947 30.7447 31.0461 30.8689 31.1377 30.9605C31.2293 31.0521 31.3535 31.1035 31.483 31.1035H41.3086C41.4381 31.1035 41.5623 31.0521 41.6539 30.9605C41.7455 30.8689 41.7969 30.7447 41.7969 30.6152Z" fill="#955B50"/>
<path d="M42.2852 20.4609H22.5586C22.4291 20.4609 22.3049 20.4095 22.2133 20.3179C22.1218 20.2264 22.0703 20.1022 22.0703 19.9727V18.0195C22.0703 17.89 22.1218 17.7658 22.2133 17.6743C22.3049 17.5827 22.4291 17.5312 22.5586 17.5312H42.2852C42.4147 17.5312 42.5389 17.5827 42.6304 17.6743C42.722 17.7658 42.7734 17.89 42.7734 18.0195V19.9727C42.7734 20.1022 42.722 20.2264 42.6304 20.3179C42.5389 20.4095 42.4147 20.4609 42.2852 20.4609ZM0.662598 20.4609H18.0664C18.1959 20.4609 18.3201 20.4095 18.4117 20.3179C18.5032 20.2264 18.5547 20.1022 18.5547 19.9727V18.0195C18.5547 17.89 18.5032 17.7658 18.4117 17.6743C18.3201 17.5827 18.1959 17.5313 18.0664 17.5312H1.571C1.20534 18.4872 0.901904 19.4658 0.662598 20.4609Z" fill="#AC695D"/>
<path d="M23.2641 36.6297L14.2871 45.6066C13.9058 45.988 13.2874 45.988 12.9061 45.6066L1.85754 34.5581C1.4762 34.1767 1.4762 33.5584 1.85754 33.177L10.8345 24.2001C11.2158 23.8187 11.8342 23.8187 12.2156 24.2001L23.2641 35.2486C23.6454 35.63 23.6454 36.2483 23.2641 36.6297Z" fill="#0055CA"/>
<path d="M19.6899 42.9656L17.0493 45.6061C16.668 45.9875 16.0496 45.9875 15.6683 45.6061L4.61975 34.5576C4.2384 34.1762 4.2384 33.5579 4.61975 33.1765L7.26028 30.536C7.64163 30.1547 8.25999 30.1547 8.64133 30.536L19.6899 41.5845C20.0713 41.9659 20.0713 42.5843 19.6899 42.9656Z" fill="#ECECF1"/>
<path d="M26.0263 36.6298L19.5492 43.1068C19.1679 43.4882 18.5495 43.4882 18.1682 43.1068L7.11975 32.0582C6.7384 31.6768 6.7384 31.0585 7.11975 30.6771L13.5968 24.2001C13.9781 23.8187 14.5965 23.8187 14.9779 24.2001L26.0264 35.2486C26.4077 35.6301 26.4077 36.2484 26.0263 36.6298Z" fill="#FFEEE6"/>
<path d="M16.0743 29.3237L9.74311 35.6548C9.32143 36.0765 8.63784 36.0765 8.21616 35.6548C7.79448 35.2332 7.79448 34.5496 8.21616 34.1279L14.5473 27.7967C14.969 27.375 15.6526 27.375 16.0743 27.7967C16.4959 28.2184 16.4959 28.902 16.0743 29.3237ZM16.4899 33.3984C16.0682 32.9767 15.3846 32.9767 14.9629 33.3984L11.2249 37.1365C10.8032 37.5582 10.8032 38.2417 11.2249 38.6634C11.6465 39.0851 12.3301 39.0851 12.7518 38.6634L16.4899 34.9253C16.9116 34.5038 16.9116 33.8201 16.4899 33.3984Z" fill="#D4D4DA"/>
<path d="M10.8345 28.3411L8.76296 30.4127C8.38162 30.794 7.76326 30.794 7.38191 30.4127L6.00085 29.0316C5.61951 28.6503 5.61951 28.0319 6.00085 27.6506L8.07244 25.579C8.45378 25.1976 9.07214 25.1976 9.45349 25.579L10.8345 26.96C11.2159 27.3414 11.2159 27.9597 10.8345 28.3411Z" fill="#0077F0"/>
<path d="M32.5203 17.6611V19.4778C32.5203 22.0182 30.8866 24.1769 28.6125 24.9605V26.93C28.6125 27.9738 27.7663 28.82 26.7224 28.82C25.6786 28.82 24.8324 27.9738 24.8324 26.93V24.9605C22.5583 24.1768 20.9246 22.0181 20.9246 19.4778V17.6611C20.9246 14.4591 23.5204 11.8633 26.7224 11.8633C29.9245 11.8634 32.5203 14.4591 32.5203 17.6611Z" fill="#F6A96C"/>
<path d="M28.1107 23.1146H23.9669C22.1564 23.1146 20.6886 21.6468 20.6886 19.8362V17.6744C20.6886 14.3421 23.3901 11.6406 26.7224 11.6406C27.3991 11.6406 28.0498 11.7521 28.6572 11.9575C28.704 11.9734 28.7043 12.0393 28.6582 12.0573C26.418 12.9386 24.8323 15.1213 24.8323 17.6744V19.8363C24.8323 21.6469 26.3001 23.1146 28.1107 23.1146Z" fill="#929298"/>
<path d="M29.478 23.1149H27.8082C25.9977 23.1149 24.5299 21.6472 24.5299 19.8366V17.6748C24.5299 15.014 26.2524 12.7554 28.643 11.9531C31.0337 12.7553 32.7561 15.0139 32.7561 17.6748V19.8367C32.7562 21.6473 31.2885 23.1149 29.478 23.1149Z" fill="#A1A1A7"/>
<path d="M20.3871 33.9631V39.0937C20.3871 40.1153 19.5408 40.9435 18.4971 40.9435C17.4533 40.9435 16.6071 40.1153 16.6071 39.0937V33.9631C16.6071 32.9415 17.4533 32.1133 18.4971 32.1133C19.5408 32.1133 20.3871 32.9415 20.3871 33.9631Z" fill="#0066ED"/>
<path d="M13.7303 39.9916C13.7303 41.0354 12.9021 41.8816 11.8805 41.8816H8.5813V38.1016H11.8805C12.9021 38.1016 13.7303 38.9479 13.7303 39.9916Z" fill="#EA9B58"/>
<path d="M26.1661 35.1518H16.6071V30.5988C16.6071 28.7055 17.9237 27.0801 19.7416 26.7294L23.0672 26.0827L23.1221 26.0806C24.7031 25.7819 26.1661 26.9944 26.1661 28.6034V35.1518Z" fill="#0066ED"/>
<path d="M36.8813 34.0088C36.8813 34.6415 36.3683 35.1545 35.7356 35.1545H21.1302C20.9215 35.1543 20.7214 35.0712 20.5739 34.9235C20.4264 34.7759 20.3435 34.5757 20.3435 34.367V28.9764L20.3436 28.9476C20.3533 27.5781 21.3519 26.4146 22.6968 26.1564L23.0607 26.0866C23.636 25.9762 24.2159 25.8918 24.7988 25.8338H24.799C26.6631 25.6482 28.5442 25.7334 30.3839 26.0865L33.7467 26.7319C35.5647 27.0826 36.8813 28.708 36.8813 30.6013V34.0088Z" fill="#0077F0"/>
<path d="M33.18 48.1462C30.3333 49.3413 27.2067 50.0017 23.9258 50.0017C22.7268 50.0021 21.5293 49.913 20.3435 49.7353V30.3633H33.18V48.1462Z" fill="#0077F0"/>
<path d="M36.8813 33.9631V46.1931C35.6832 46.9665 34.4181 47.6309 33.1012 48.1782V33.9631C33.1012 32.9415 33.9475 32.1133 34.9913 32.1133C36.035 32.1133 36.8813 32.9415 36.8813 33.9631ZM18.5373 41.8829H11.5569V38.1028H18.5373C19.5588 38.1028 20.3871 38.9491 20.3871 39.9929C20.3871 41.0366 19.5588 41.8829 18.5373 41.8829Z" fill="#0066ED"/>
<path d="M36.8814 39.0061V40.0311C36.8814 41.0527 36.0351 41.8809 34.9913 41.8809C33.9476 41.8809 33.1013 41.0527 33.1013 40.0311V39.0061C33.1013 37.9845 33.9476 37.1562 34.9913 37.1562C36.0351 37.1562 36.8814 37.9844 36.8814 39.0061ZM18.4971 37.1562C17.4533 37.1562 16.6071 37.9845 16.6071 39.0061V40.0311C16.6071 41.0527 17.4533 41.8809 18.4971 41.8809C19.5408 41.8809 20.3871 41.0527 20.3871 40.0311V39.0061C20.3871 37.9844 19.5408 37.1562 18.4971 37.1562Z" fill="#0055CA"/>
<path d="M9.80231 39.8391C9.80231 41.1754 8.76422 42.2693 7.45035 42.3582C7.41979 42.3621 7.38863 42.3641 7.35699 42.3641H6.2025C5.80387 42.3641 5.45778 42.0572 5.44342 41.6587C5.44025 41.5742 5.45175 41.4897 5.4774 41.4091C5.51539 41.29 5.42399 41.169 5.29889 41.169C5.24967 41.169 5.20133 41.1513 5.16608 41.117C4.81569 40.7761 4.77906 40.3955 4.91608 40.1152C4.95983 40.0256 4.93502 39.9142 4.85074 39.8609C4.7461 39.7949 4.6599 39.7035 4.60017 39.5952C4.54045 39.4868 4.50917 39.3651 4.50924 39.2414C4.50906 39.1287 4.535 39.0175 4.58502 38.9165C4.62809 38.8297 4.59762 38.7205 4.51529 38.6695C4.40376 38.6006 4.31278 38.503 4.25184 38.3869C4.19091 38.2708 4.16227 38.1405 4.16891 38.0096C4.18766 37.6261 4.54283 37.314 4.92682 37.314H5.89C6.06012 37.314 6.14889 37.1118 6.03375 36.9865L5.7776 36.7078C5.50621 36.4125 5.49703 35.9459 5.78404 35.6658C5.85418 35.5972 5.93736 35.5434 6.02868 35.5076C6.11999 35.4718 6.21756 35.4547 6.31561 35.4573C6.41366 35.4599 6.51018 35.4822 6.59946 35.5228C6.68873 35.5634 6.76894 35.6216 6.83531 35.6938L8.78073 37.81C9.40055 38.2704 9.80231 39.0078 9.80231 39.8391Z" fill="#F6A96C"/>
</svg>
