<svg width="16" height="16" viewBox="0 0 16 16" fill="none" xmlns="http://www.w3.org/2000/svg">
<g clip-path="url(#clip0_97_7467)">
<path d="M4.16829 5.33301C4.16829 5.69561 4.27582 6.05006 4.47727 6.35155C4.67872 6.65304 4.96504 6.88803 5.30004 7.02679C5.63504 7.16555 6.00366 7.20185 6.35929 7.13111C6.71492 7.06037 7.04159 6.88577 7.29799 6.62937C7.55439 6.37297 7.72899 6.0463 7.79973 5.69067C7.87047 5.33504 7.83417 4.96642 7.69541 4.63142C7.55665 4.29642 7.32166 4.0101 7.02017 3.80865C6.71868 3.6072 6.36423 3.49967 6.00163 3.49967C5.51551 3.50003 5.0494 3.6933 4.70565 4.03704C4.36191 4.38078 4.16865 4.84689 4.16829 5.33301ZM6.83496 5.33301C6.83496 5.49783 6.78609 5.65894 6.69452 5.79598C6.60295 5.93302 6.4728 6.03983 6.32053 6.10291C6.16826 6.16598 6.0007 6.18248 5.83905 6.15033C5.6774 6.11817 5.52892 6.03881 5.41237 5.92226C5.29583 5.80572 5.21646 5.65723 5.18431 5.49558C5.15215 5.33393 5.16865 5.16638 5.23173 5.0141C5.2948 4.86183 5.40161 4.73168 5.53865 4.64012C5.67569 4.54855 5.83681 4.49967 6.00163 4.49967C6.22253 4.50003 6.43429 4.58794 6.59049 4.74414C6.7467 4.90035 6.83461 5.1121 6.83496 5.33301ZM14.6683 6.16634C14.5357 6.16634 14.4085 6.21902 14.3147 6.31279C14.221 6.40656 14.1683 6.53373 14.1683 6.66634V8.17767L13.9076 7.95434C13.5515 7.65925 13.1035 7.49777 12.641 7.49777C12.1784 7.49777 11.7304 7.65925 11.3743 7.95434L8.60163 10.333C8.42685 10.4722 8.21004 10.5479 7.98663 10.5479C7.76321 10.5479 7.54641 10.4722 7.37163 10.333L7.15029 10.143C6.82188 9.87118 6.41487 9.71197 5.98917 9.6888C5.56348 9.66564 5.1416 9.77975 4.78563 10.0143L2.03429 11.861C1.88999 11.2514 1.82302 10.626 1.83496 9.99967V5.99967C1.83496 2.92367 2.92563 1.83301 6.00163 1.83301H8.66829C8.8009 1.83301 8.92808 1.78033 9.02185 1.68656C9.11561 1.59279 9.16829 1.46562 9.16829 1.33301C9.16829 1.2004 9.11561 1.07322 9.02185 0.979454C8.92808 0.885686 8.8009 0.833008 8.66829 0.833008H6.00163C2.38029 0.833008 0.834961 2.37767 0.834961 5.99967V9.99967C0.834961 13.6217 2.38029 15.1663 6.00163 15.1663H10.0016C13.623 15.1663 15.1683 13.6217 15.1683 9.99967V6.66634C15.1683 6.53373 15.1156 6.40656 15.0218 6.31279C14.9281 6.21902 14.8009 6.16634 14.6683 6.16634ZM14.1683 9.99967C14.1683 13.0757 13.0776 14.1663 10.0016 14.1663H6.00163C4.16363 14.1663 3.03896 13.7723 2.42763 12.803L5.34229 10.847C5.51708 10.7352 5.72231 10.6805 5.92956 10.6905C6.1368 10.7006 6.3358 10.7748 6.49896 10.903L6.72029 11.0937C7.07616 11.3894 7.52427 11.5512 7.98696 11.5512C8.44965 11.5512 8.89776 11.3894 9.25363 11.0937L12.0283 8.71301C12.2032 8.57446 12.4198 8.49908 12.643 8.49908C12.8661 8.49908 13.0827 8.57446 13.2576 8.71301L14.1696 9.49567L14.1683 9.99967ZM10.0016 3.33301C10.0016 3.2004 10.0543 3.07322 10.1481 2.97945C10.2418 2.88569 10.369 2.83301 10.5016 2.83301H11.835V1.49967C11.835 1.36707 11.8876 1.23989 11.9814 1.14612C12.0752 1.05235 12.2024 0.999674 12.335 0.999674C12.4676 0.999674 12.5947 1.05235 12.6885 1.14612C12.7823 1.23989 12.835 1.36707 12.835 1.49967V2.83301H14.1683C14.3009 2.83301 14.4281 2.88569 14.5218 2.97945C14.6156 3.07322 14.6683 3.2004 14.6683 3.33301C14.6683 3.46562 14.6156 3.59279 14.5218 3.68656C14.4281 3.78033 14.3009 3.83301 14.1683 3.83301H12.835V5.16634C12.835 5.29895 12.7823 5.42613 12.6885 5.51989C12.5947 5.61366 12.4676 5.66634 12.335 5.66634C12.2024 5.66634 12.0752 5.61366 11.9814 5.51989C11.8876 5.42613 11.835 5.29895 11.835 5.16634V3.83301H10.5016C10.369 3.83301 10.2418 3.78033 10.1481 3.68656C10.0543 3.59279 10.0016 3.46562 10.0016 3.33301Z" fill="#707070"/>
</g>
<defs>
<clipPath id="clip0_97_7467">
<rect width="16" height="16" fill="white"/>
</clipPath>
</defs>
</svg>
