<svg width="55" height="28" viewBox="0 0 55 28" fill="none" xmlns="http://www.w3.org/2000/svg">
<rect width="55" height="28" rx="14" fill="white"/>
<path d="M30.8334 7.33398H24.1667C22.3267 7.33398 20.8334 8.82065 20.8334 10.654V14.6407V15.3073C20.8334 17.1407 22.3267 18.6273 24.1667 18.6273H25.1667C25.3467 18.6273 25.5867 18.7473 25.7 18.894L26.7 20.2207C27.14 20.8073 27.86 20.8073 28.3 20.2207L29.3 18.894C29.4267 18.7273 29.6267 18.6273 29.8334 18.6273H30.8334C32.6734 18.6273 34.1667 17.1407 34.1667 15.3073V10.654C34.1667 8.82065 32.6734 7.33398 30.8334 7.33398ZM24.8334 14.0007C24.46 14.0007 24.1667 13.7007 24.1667 13.334C24.1667 12.9673 24.4667 12.6673 24.8334 12.6673C25.2 12.6673 25.5 12.9673 25.5 13.334C25.5 13.7007 25.2067 14.0007 24.8334 14.0007ZM27.5 14.0007C27.1267 14.0007 26.8334 13.7007 26.8334 13.334C26.8334 12.9673 27.1334 12.6673 27.5 12.6673C27.8667 12.6673 28.1667 12.9673 28.1667 13.334C28.1667 13.7007 27.8734 14.0007 27.5 14.0007ZM30.1667 14.0007C29.7934 14.0007 29.5 13.7007 29.5 13.334C29.5 12.9673 29.8 12.6673 30.1667 12.6673C30.5334 12.6673 30.8334 12.9673 30.8334 13.334C30.8334 13.7007 30.54 14.0007 30.1667 14.0007Z" fill="#D0D5DD"/>
</svg>
