<svg width="24" height="24" viewBox="0 0 24 24" fill="none" xmlns="http://www.w3.org/2000/svg">
<path d="M8.24995 20.25C8.15145 20.2501 8.0539 20.2307 7.9629 20.193C7.8719 20.1553 7.78925 20.1 7.7197 20.0302C7.65001 19.9606 7.59473 19.878 7.55701 19.787C7.51929 19.696 7.49988 19.5985 7.49988 19.5C7.49988 19.4015 7.51929 19.304 7.55701 19.213C7.59473 19.122 7.65001 19.0393 7.7197 18.9697L14.6895 12L7.7197 5.03023C7.42664 4.73716 7.42664 4.2626 7.7197 3.96973C8.01276 3.67685 8.48733 3.67666 8.7802 3.96973L16.2802 11.4697C16.3499 11.5393 16.4052 11.622 16.4429 11.713C16.4806 11.804 16.5 11.9015 16.5 12C16.5 12.0985 16.4806 12.196 16.4429 12.287C16.4052 12.378 16.3499 12.4606 16.2802 12.5302L8.7802 20.0302C8.71065 20.1 8.628 20.1553 8.537 20.193C8.446 20.2307 8.34845 20.2501 8.24995 20.25Z" fill="black"/>
</svg>
