<svg width="40" height="40" viewBox="0 0 40 40" fill="none" xmlns="http://www.w3.org/2000/svg">
<path d="M14.2333 0C18.0314 0 21.1123 3.08072 21.1123 6.88087C21.1123 10.9117 18.9244 16.0226 14.2333 16.0226C9.39605 16.0226 7.35202 10.6809 7.35202 6.88087C7.35202 3.0808 10.433 0 14.2333 0ZM15.9917 17.9582H12.4727L13.3467 19.7006H15.1179L15.9918 17.9582H15.9917ZM16.4623 34.604L14.8596 21.636H13.6048L12.002 34.6037L14.2331 37.2831L16.4622 34.604H16.4623ZM10.2466 35.5202C10.162 35.4186 10.0991 35.3006 10.0618 35.1737C10.0245 35.0468 10.0136 34.9136 10.0298 34.7823L11.753 20.8404L10.3073 17.9582H8.6121C3.87484 17.9582 0 21.5566 0 25.9524V33.7449C0 35.7026 1.5975 37.3 3.55532 37.3H11.7285L10.2466 35.5202ZM17.494 37.2999V36.3901L16.737 37.2999H17.494ZM16.7115 20.8403L16.9396 22.6862C17.336 21.7808 18.2402 21.1464 19.2902 21.1464H23.0146V20.5317C23.014 19.8941 23.1866 19.2684 23.514 18.7213C22.4019 18.2324 21.1615 17.9582 19.8548 17.9582H18.157L16.7115 20.8403ZM36.5982 32.5855V32.635C36.5982 34.0107 35.4802 35.13 34.106 35.13C32.7317 35.13 31.6109 34.0107 31.6109 32.635V32.5855H27.0499V32.6261C27.0499 34.0019 25.9319 35.1211 24.5576 35.1211C23.1833 35.1211 22.0626 34.0019 22.0626 32.6261V32.5855H21.0727C20.5092 32.5858 19.951 32.476 19.4296 32.2623V38.148C19.4296 39.1665 20.2631 40 21.2818 40H37.3793C38.3978 40 39.2314 39.1665 39.2314 38.148V32.2623C38.71 32.4761 38.1519 32.5859 37.5883 32.5855H36.5985H36.5982ZM25.1144 32.6261V30.0321H23.998V32.6261C23.998 32.9346 24.249 33.1857 24.5575 33.1857C24.866 33.1857 25.1144 32.9347 25.1144 32.6261H25.1144ZM34.6627 32.6349V30.0409H33.5463V32.6349C33.5463 32.9435 33.7973 33.1944 34.1059 33.1944C34.4129 33.1944 34.6627 32.9435 34.6627 32.6349H34.6627ZM40 23.7112V28.2407C40 29.5666 38.9142 30.65 37.5881 30.65L36.5983 30.6509V29.0733C36.5983 28.5389 36.165 28.1056 35.6306 28.1056H32.5786C32.0442 28.1056 31.6109 28.5389 31.6109 29.0733V30.6553L27.0499 30.6592V29.0645C27.0499 28.5301 26.6166 28.0968 26.0822 28.0968H23.0302C22.4958 28.0968 22.0625 28.5301 22.0625 29.0645V30.6635L21.0726 30.6644C19.7465 30.6644 18.6607 29.581 18.6607 28.255V23.7113C18.6607 23.3654 18.9442 23.082 19.2902 23.082H24.95V20.5318C24.95 19.6467 25.6702 18.9266 26.5552 18.9266H32.1055C32.9906 18.9266 33.7107 19.6467 33.7107 20.5318V23.082H39.3706C39.7164 23.082 39.9999 23.3654 39.9999 23.7113L40 23.7112ZM31.7753 20.862H26.8855V23.0819H31.7753V20.862Z" fill="white"/>
</svg>
