<svg width="64" height="81" viewBox="0 0 64 81" fill="none" xmlns="http://www.w3.org/2000/svg">
<path d="M17.1096 68.666C21.5032 76.2738 29.6904 81 38.4757 81C52.0806 81 63.149 69.9316 63.149 56.3267V37.0085C63.149 33.5433 60.3298 30.7241 56.8643 30.7241C55.5361 30.7225 54.2419 31.1442 53.1695 31.9278C52.4637 29.2295 50.005 27.2327 47.0885 27.2327C45.6844 27.2312 44.3207 27.7023 43.2169 28.5701C42.3359 26.1626 40.0217 24.4396 37.3126 24.4396C36.0691 24.4381 34.8535 24.8077 33.8212 25.501V13.2671C33.8212 9.80185 31.0021 6.98267 27.5366 6.98267C24.0713 6.98267 21.2521 9.80185 21.2521 13.2671V46.585C21.2516 46.7956 21.1913 47.0017 21.078 47.1793C20.9648 47.3568 20.8034 47.4985 20.6127 47.5877C20.3623 47.7056 20.0767 47.7248 19.8128 47.6415C19.5489 47.5581 19.3261 47.3783 19.1889 47.138L14.9984 39.8799C12.4958 35.5452 6.93348 34.0547 2.5984 36.5573C2.20053 36.7856 1.85188 37.0906 1.57264 37.4545C1.29341 37.8185 1.08911 38.2342 0.971593 38.6776C0.851735 39.1204 0.820879 39.5825 0.880811 40.0373C0.940743 40.4921 1.09027 40.9305 1.32075 41.3272L17.1096 68.666ZM3.67007 39.4004C3.69367 39.3118 3.73457 39.2287 3.79042 39.1559C3.84627 39.0831 3.91597 39.0221 3.99549 38.9764C4.96385 38.4173 6.03837 38.1318 7.12728 38.1318C7.67308 38.1318 8.22268 38.2036 8.76389 38.3487C10.3853 38.7831 11.7405 39.823 12.5798 41.2767L16.7702 48.5347C17.7878 50.297 19.9463 50.9785 21.7911 50.1206C23.1607 49.4835 24.0457 48.0959 24.0457 46.5854V13.2671C24.0457 11.342 25.6119 9.77574 27.5371 9.77574C29.4623 9.77574 31.0285 11.342 31.0285 13.2671V39.1033C31.0285 39.4737 31.1756 39.8289 31.4375 40.0909C31.6994 40.3528 32.0547 40.4999 32.4251 40.4999C32.7955 40.4999 33.1507 40.3528 33.4126 40.0909C33.6746 39.8289 33.8217 39.4737 33.8217 39.1033V30.7241C33.8217 28.7989 35.3879 27.2327 37.3131 27.2327C39.2383 27.2327 40.8045 28.7989 40.8045 30.7241V39.1033C40.8045 39.4737 40.9516 39.8289 41.2135 40.0909C41.4755 40.3528 41.8307 40.4999 42.2011 40.4999C42.5715 40.4999 42.9267 40.3528 43.1887 40.0909C43.4506 39.8289 43.5977 39.4737 43.5977 39.1033V33.5171C43.5977 31.592 45.1639 30.0258 47.0891 30.0258C49.0143 30.0258 50.5805 31.592 50.5805 33.5171V39.8016C50.5805 40.172 50.7276 40.5273 50.9896 40.7892C51.2515 41.0511 51.6067 41.1982 51.9771 41.1982C52.3475 41.1982 52.7028 41.0511 52.9647 40.7892C53.2266 40.5273 53.3737 40.172 53.3737 39.8016V37.0085C53.3737 35.0834 54.9399 33.5171 56.8651 33.5171C58.7903 33.5171 60.3565 35.0834 60.3565 37.0085V56.3267C60.3565 68.3915 50.5411 78.2069 38.4762 78.2069C30.6853 78.2069 23.4252 74.0158 19.5288 67.269L3.73983 39.9302C3.69379 39.8509 3.66393 39.7632 3.65195 39.6723C3.63998 39.5814 3.64613 39.489 3.67007 39.4004Z" fill="white"/>
<path d="M18.0083 20.484C18.1663 20.391 18.3045 20.2677 18.4149 20.1213C18.5253 19.9749 18.6058 19.8081 18.6518 19.6306C18.6977 19.453 18.7083 19.2682 18.6828 19.0866C18.6573 18.905 18.5963 18.7302 18.5033 18.5721C17.561 16.9713 17.0629 15.1369 17.0629 13.2672C17.0629 7.49171 21.7615 2.79308 27.537 2.79308C33.3125 2.79308 38.0112 7.49171 38.0112 13.2672C38.0112 15.1438 37.5094 16.9845 36.5601 18.59C36.3737 18.9087 36.3211 19.2883 36.4138 19.6458C36.5065 20.0032 36.737 20.3094 37.0549 20.4973C37.3727 20.6853 37.7521 20.7397 38.1099 20.6486C38.4678 20.5576 38.7751 20.3286 38.9645 20.0116C40.1683 17.976 40.8044 15.6438 40.8044 13.2672C40.8043 5.95161 34.8526 0 27.537 0C20.2214 0 14.2698 5.95161 14.2698 13.2672C14.2698 15.6348 14.9013 17.9591 16.0962 19.989C16.4878 20.6537 17.344 20.8752 18.0083 20.484Z" fill="white"/>
</svg>
