<svg width="20" height="18" viewBox="0 0 20 18" fill="none" xmlns="http://www.w3.org/2000/svg">
<path d="M17 17.1982H3C2.46957 17.1982 1.96086 16.9875 1.58579 16.6125C1.21071 16.2374 1 15.7287 1 15.1982V6.19824C1 5.66781 1.21071 5.1591 1.58579 4.78403C1.96086 4.40896 2.46957 4.19824 3 4.19824H17C17.5304 4.19824 18.0391 4.40896 18.4142 4.78403C18.7893 5.1591 19 5.66781 19 6.19824V15.1982C19 15.7287 18.7893 16.2374 18.4142 16.6125C18.0391 16.9875 17.5304 17.1982 17 17.1982Z" stroke="#8C8C8C" stroke-width="1.3"/>
<path d="M14.5 11.1982C14.3674 11.1982 14.2402 11.1456 14.1464 11.0518C14.0527 10.958 14 10.8309 14 10.6982C14 10.5656 14.0527 10.4385 14.1464 10.3447C14.2402 10.2509 14.3674 10.1982 14.5 10.1982C14.6326 10.1982 14.7598 10.2509 14.8536 10.3447C14.9473 10.4385 15 10.5656 15 10.6982C15 10.8309 14.9473 10.958 14.8536 11.0518C14.7598 11.1456 14.6326 11.1982 14.5 11.1982Z" stroke="#8C8C8C" stroke-width="1.3" stroke-linecap="round" stroke-linejoin="round"/>
<path d="M16 4.1982V2.8012C15.9999 2.4947 15.9294 2.19233 15.7939 1.91742C15.6583 1.64251 15.4614 1.40243 15.2184 1.21571C14.9753 1.029 14.6926 0.900642 14.3921 0.840561C14.0915 0.780479 13.7812 0.790278 13.485 0.869201L2.485 3.8022C2.05905 3.91571 1.68254 4.16676 1.41399 4.51633C1.14544 4.86589 0.999902 5.29439 1 5.7352V6.1982" stroke="#8C8C8C" stroke-width="1.3"/>
</svg>
