<svg width="22" height="21" viewBox="0 0 22 21" fill="none" xmlns="http://www.w3.org/2000/svg">
<path d="M19.0174 0.299805H2.58266C1.97749 0.300561 1.39733 0.551656 0.96941 0.998014C0.541495 1.44437 0.300774 2.04954 0.300049 2.68079V13.1571C0.300774 13.7884 0.541495 14.3935 0.96941 14.8399C1.39733 15.2862 1.97749 15.5373 2.58266 15.5381H3.4957V19.3262C3.49393 19.5204 3.54824 19.7107 3.65157 19.8722C3.7549 20.0338 3.90245 20.1591 4.07503 20.232C4.24201 20.3022 4.42541 20.3184 4.60131 20.2783C4.77722 20.2382 4.93745 20.1437 5.06111 20.0072L9.1689 15.5381H19.0174C19.6226 15.5373 20.2028 15.2862 20.6307 14.8399C21.0586 14.3935 21.2993 13.7884 21.3 13.1571V2.68079C21.2993 2.04954 21.0586 1.44437 20.6307 0.998014C20.2028 0.551656 19.6226 0.300561 19.0174 0.299805ZM20.387 13.1571C20.3866 13.5359 20.2422 13.899 19.9855 14.1669C19.7287 14.4347 19.3806 14.5853 19.0174 14.5857H8.97396C8.91238 14.5857 8.85143 14.5987 8.79479 14.6239C8.73814 14.6491 8.68697 14.686 8.64435 14.7324L4.40874 19.3262V15.0619C4.40874 14.9356 4.36065 14.8145 4.27503 14.7252C4.18942 14.6359 4.0733 14.5857 3.95222 14.5857H2.58266C2.21954 14.5853 1.87139 14.4347 1.61463 14.1669C1.35786 13.899 1.21345 13.5359 1.21309 13.1571V2.68079C1.21345 2.30202 1.35786 1.93887 1.61463 1.67104C1.87139 1.40321 2.21954 1.25258 2.58266 1.2522H19.0174C19.3806 1.25258 19.7287 1.40321 19.9855 1.67104C20.2422 1.93887 20.3866 2.30202 20.387 2.68079V13.1571ZM4.86527 5.06177C4.86527 4.93548 4.91336 4.81435 4.99898 4.72505C5.08459 4.63575 5.20071 4.58557 5.32179 4.58557H9.88701C10.0081 4.58557 10.1242 4.63575 10.2098 4.72505C10.2954 4.81435 10.3435 4.93548 10.3435 5.06177C10.3435 5.18807 10.2954 5.30919 10.2098 5.39849C10.1242 5.4878 10.0081 5.53797 9.88701 5.53797H5.32179C5.20071 5.53797 5.08459 5.4878 4.99898 5.39849C4.91336 5.30919 4.86527 5.18807 4.86527 5.06177ZM14.9087 10.7761C14.9087 10.9024 14.8606 11.0235 14.775 11.1129C14.6894 11.2022 14.5733 11.2523 14.4522 11.2523H5.32179C5.20071 11.2523 5.08459 11.2022 4.99898 11.1129C4.91336 11.0235 4.86527 10.9024 4.86527 10.7761C4.86527 10.6498 4.91336 10.5287 4.99898 10.4394C5.08459 10.3501 5.20071 10.2999 5.32179 10.2999H14.4522C14.5733 10.2999 14.6894 10.3501 14.775 10.4394C14.8606 10.5287 14.9087 10.6498 14.9087 10.7761ZM16.7348 7.91895C16.7348 8.04525 16.6867 8.16637 16.6011 8.25567C16.5155 8.34498 16.3994 8.39515 16.2783 8.39515H5.32179C5.20071 8.39515 5.08459 8.34498 4.99898 8.25567C4.91336 8.16637 4.86527 8.04525 4.86527 7.91895C4.86527 7.79266 4.91336 7.67153 4.99898 7.58223C5.08459 7.49292 5.20071 7.44275 5.32179 7.44275H16.2783C16.3994 7.44275 16.5155 7.49292 16.6011 7.58223C16.6867 7.67153 16.7348 7.79266 16.7348 7.91895Z" fill="#8C8C8C" stroke="#8C8C8C" stroke-width="0.6"/>
</svg>
