<svg width="24" height="24" viewBox="0 0 24 24" fill="none" xmlns="http://www.w3.org/2000/svg">
<path d="M13.6103 7.57465C12.9455 7.57465 12.9455 6.53065 13.6103 6.53065H18.3023C18.9671 6.53065 18.9671 7.57465 18.3023 7.57465H13.6103ZM5.36871 4.23385C5.23949 4.22498 5.11846 4.16739 5.03007 4.07272C4.94168 3.97806 4.89251 3.85336 4.89251 3.72385C4.89251 3.59433 4.94168 3.46964 5.03007 3.37497C5.11846 3.2803 5.23949 3.22272 5.36871 3.21385H8.48871C8.55862 3.20905 8.62878 3.21867 8.69482 3.24213C8.76086 3.26559 8.82137 3.30237 8.87259 3.3502C8.92381 3.39803 8.96466 3.45588 8.99258 3.52016C9.0205 3.58443 9.03491 3.65377 9.03491 3.72385C9.03491 3.79393 9.0205 3.86326 8.99258 3.92754C8.96466 3.99181 8.92381 4.04966 8.87259 4.09749C8.82137 4.14532 8.76086 4.1821 8.69482 4.20556C8.62878 4.22902 8.55862 4.23864 8.48871 4.23385H5.36871ZM12.6407 16.373H18.0479C18.352 16.3749 18.6432 16.4962 18.8587 16.7108C19.0742 16.9254 19.1968 17.2161 19.1999 17.5202V19.1282C19.1955 19.4291 19.072 19.716 18.8566 19.9261C18.6411 20.1361 18.3512 20.2523 18.0503 20.249H12.6407C12.3398 20.2523 12.0499 20.1361 11.8344 19.9261C11.619 19.716 11.4955 19.4291 11.4911 19.1282V17.5202C11.4908 17.3693 11.5203 17.2198 11.578 17.0803C11.6357 16.9408 11.7204 16.8141 11.8273 16.7075C11.9341 16.6009 12.061 16.5164 12.2006 16.459C12.3402 16.4016 12.4898 16.3724 12.6407 16.373ZM18.0479 17.4194H12.6407C12.6102 17.416 12.5796 17.4247 12.5554 17.4435C12.5312 17.4623 12.5153 17.4899 12.5111 17.5202V19.1282C12.5153 19.1586 12.5312 19.1862 12.5554 19.205C12.5796 19.2238 12.6102 19.2325 12.6407 19.229H18.0479C18.0983 19.229 18.1751 19.1786 18.1751 19.1282V17.5202C18.1715 17.4901 18.1561 17.4625 18.1323 17.4436C18.1084 17.4248 18.0781 17.4161 18.0479 17.4194ZM3.45591 21.7538H20.2175C20.2984 21.7592 20.3782 21.7329 20.44 21.6805C20.5018 21.6281 20.5408 21.5537 20.5487 21.473L21.7727 10.5074C21.7788 10.4614 21.7747 10.4146 21.7605 10.3704C21.7464 10.3261 21.7227 10.2856 21.691 10.2516C21.6593 10.2177 21.6205 10.1911 21.5774 10.174C21.5343 10.1568 21.4879 10.1494 21.4415 10.1522H14.1599C12.3239 10.1522 13.4975 13.085 10.7999 13.085H2.56311C2.5162 13.0798 2.46871 13.0856 2.42444 13.1019C2.38017 13.1183 2.34034 13.1448 2.30815 13.1793C2.27596 13.2138 2.2523 13.2554 2.23906 13.3007C2.22582 13.346 2.22337 13.3938 2.23191 13.4402L3.11991 21.473C3.12159 21.5138 3.1317 21.5538 3.14961 21.5905C3.16752 21.6271 3.19283 21.6597 3.22396 21.686C3.25508 21.7124 3.29133 21.7321 3.33043 21.7438C3.36952 21.7554 3.41062 21.7589 3.45111 21.7538H3.45591ZM20.2175 22.8002H3.45591C3.11992 22.7969 2.79681 22.6705 2.54778 22.4449C2.29876 22.2194 2.14111 21.9103 2.10471 21.5762L1.19991 13.5674C1.17783 13.3782 1.19545 13.1865 1.25163 13.0044C1.30782 12.8224 1.40134 12.6541 1.52623 12.5102C1.65112 12.3664 1.80463 12.2501 1.97696 12.1689C2.14929 12.0877 2.33666 12.0434 2.52711 12.0386C2.55454 12.0412 2.58222 12.0377 2.60815 12.0284C2.63407 12.0191 2.65762 12.0041 2.67711 11.9846C2.6966 11.9652 2.71154 11.9416 2.72088 11.9157C2.73021 11.8898 2.7337 11.8621 2.73111 11.8346V1.71145C2.73142 1.64359 2.74517 1.57647 2.77157 1.51396C2.79797 1.45145 2.8365 1.3948 2.88493 1.34726C2.93335 1.29973 2.99072 1.26226 3.05371 1.23703C3.11669 1.2118 3.18406 1.19929 3.25191 1.20025H17.9471C18.0823 1.20088 18.2117 1.25502 18.307 1.35082C18.4024 1.44662 18.4559 1.57628 18.4559 1.71145V3.77545C18.4556 3.80232 18.4606 3.829 18.4708 3.85389C18.4809 3.87879 18.4959 3.90141 18.5149 3.92041C18.5339 3.93942 18.5566 3.95444 18.5815 3.96457C18.6064 3.97471 18.633 3.97977 18.6599 3.97945H19.4255C19.8938 3.98703 20.345 4.15665 20.7023 4.45945C20.8715 4.61521 21.0065 4.80446 21.0986 5.01517C21.1907 5.22589 21.238 5.45347 21.2375 5.68345V8.90185C21.2372 8.92872 21.2422 8.9554 21.2524 8.98029C21.2625 9.00519 21.2775 9.02781 21.2965 9.04681C21.3155 9.06582 21.3382 9.08083 21.3631 9.09097C21.388 9.10111 21.4146 9.10617 21.4415 9.10585C21.6319 9.10804 21.8198 9.14962 21.9933 9.22796C22.1669 9.3063 22.3223 9.41971 22.4499 9.56105C22.5775 9.70239 22.6745 9.8686 22.7347 10.0492C22.7949 10.2299 22.8171 10.421 22.7999 10.6106L21.5687 21.5762C21.5318 21.9101 21.374 22.2189 21.1251 22.4443C20.8762 22.6698 20.5533 22.7964 20.2175 22.8002ZM3.99111 12.0386H6.13431C6.16119 12.039 6.18786 12.0339 6.21276 12.0238C6.23765 12.0136 6.26027 11.9986 6.27928 11.9796C6.29828 11.9606 6.3133 11.938 6.32344 11.9131C6.33357 11.8882 6.33863 11.8615 6.33831 11.8346V8.57065C6.33812 8.49406 6.35381 8.41827 6.38438 8.34805C6.41495 8.27782 6.45973 8.2147 6.51591 8.16265L10.6247 4.13305C10.6725 4.08865 10.7289 4.05447 10.7904 4.0326C10.8519 4.01073 10.9172 4.00163 10.9823 4.00585H17.2223C17.2809 4.00035 17.335 3.97218 17.3731 3.92734C17.4112 3.88251 17.4303 3.82455 17.4263 3.76585V2.45065C17.4303 2.39194 17.4112 2.33399 17.3731 2.28915C17.335 2.24431 17.2809 2.21614 17.2223 2.21065H3.99111C3.92746 2.21065 3.86641 2.23593 3.8214 2.28094C3.77639 2.32595 3.75111 2.38699 3.75111 2.45065V11.8346C3.75146 11.8645 3.75821 11.8939 3.7709 11.9209C3.78358 11.948 3.80192 11.972 3.82466 11.9913C3.84741 12.0106 3.87404 12.0248 3.90275 12.033C3.93146 12.0412 3.96159 12.0431 3.99111 12.0386ZM7.56231 12.0386H10.7999C12.5855 12.0386 11.4383 9.10585 14.1599 9.10585H20.0135C20.0404 9.10617 20.0671 9.10111 20.092 9.09097C20.1168 9.08083 20.1395 9.06582 20.1585 9.04681C20.1775 9.02781 20.1925 9.00519 20.2026 8.98029C20.2128 8.9554 20.2178 8.92872 20.2175 8.90185V5.68825C20.2162 5.60202 20.1975 5.51695 20.1624 5.43816C20.1274 5.35938 20.0767 5.28851 20.0135 5.22985C19.8474 5.09518 19.6393 5.023 19.4255 5.02585H11.6183C11.5909 5.02325 11.5632 5.02674 11.5373 5.03608C11.5113 5.04541 11.4878 5.06036 11.4683 5.07984C11.4488 5.09933 11.4339 5.12288 11.4245 5.14881C11.4152 5.17474 11.4117 5.20241 11.4143 5.22985V7.44025C11.4137 7.90662 11.2281 8.35371 10.8983 8.68349C10.5686 9.01326 10.1215 9.19881 9.65511 9.19945H7.56231C7.50949 9.20333 7.45983 9.22607 7.42238 9.26352C7.38494 9.30097 7.3622 9.35063 7.35831 9.40345V11.8274C7.35799 11.8543 7.36304 11.881 7.37318 11.9059C7.38332 11.9308 7.39833 11.9534 7.41734 11.9724C7.43635 11.9914 7.45897 12.0064 7.48386 12.0166C7.50876 12.0267 7.53543 12.0318 7.56231 12.0314V12.0386ZM8.45511 8.19865H9.65511C9.8531 8.19425 10.0415 8.11233 10.1797 7.97051C10.3179 7.82869 10.395 7.63829 10.3943 7.44025V6.30025C10.3935 6.25918 10.3809 6.21922 10.358 6.18514C10.335 6.15106 10.3028 6.12432 10.265 6.10811C10.2273 6.0919 10.1857 6.08692 10.1452 6.09375C10.1047 6.10058 10.067 6.11895 10.0367 6.14665L8.32791 7.82665C8.29901 7.85421 8.27872 7.88957 8.26951 7.92843C8.26031 7.9673 8.26257 8.008 8.27604 8.0456C8.28951 8.0832 8.31359 8.11608 8.34537 8.14027C8.37716 8.16445 8.41528 8.1789 8.45511 8.18185V8.19865Z" fill="black"/>
</svg>
