<svg width="24" height="24" viewBox="0 0 24 24" fill="none" xmlns="http://www.w3.org/2000/svg">
<path d="M21.0115 3.58887C17.5191 3.58887 12.9241 2.41039 11.2862 0.227003C11.0683 -0.0383091 10.6767 -0.076559 10.4113 0.141362C10.38 0.167017 10.3513 0.19572 10.3257 0.22705C8.68761 2.4102 4.09265 3.58887 0.600468 3.58887C0.268781 3.58887 0 3.85761 0 4.1892V11.9934C0 18.5947 5.73247 22.5743 10.6412 23.9765C10.7488 24.0078 10.8631 24.0078 10.9707 23.9765C15.8794 22.5743 21.6119 18.5947 21.6119 11.9934V4.1892C21.6119 3.85761 21.3431 3.58882 21.0115 3.58882V3.58887ZM20.4111 11.9934C20.4111 17.8537 15.2755 21.4461 10.806 22.7748C6.33632 21.4462 1.20056 17.8537 1.20056 11.9934V4.77903C4.67066 4.6617 8.77404 3.54307 10.8059 1.49942C12.8381 3.54307 16.9412 4.6617 20.4113 4.77888V11.9934L20.4111 11.9934Z" fill="#333333"/>
<path d="M8.40485 9.59169V10.7923H7.80448C7.47288 10.7923 7.2041 11.0611 7.2041 11.3927V16.1952C7.2041 16.5268 7.47288 16.7956 7.80448 16.7956H13.8078C14.1394 16.7956 14.4082 16.5268 14.4082 16.1952V11.3927C14.4082 11.0611 14.1394 10.7923 13.8078 10.7923H13.2074V9.59169C13.2074 8.26546 12.1324 7.19043 10.8061 7.19043C9.47988 7.19043 8.40485 8.26546 8.40485 9.59169ZM13.2074 15.595H8.40485V11.993H13.2073L13.2074 15.595ZM12.0068 9.59169V10.7923H9.60551V9.59169C9.60551 8.92865 10.1429 8.39109 10.8061 8.39109C11.4692 8.39109 12.0068 8.92865 12.0068 9.59169Z" fill="#333333"/>
</svg>
