<svg width="20" height="22" viewBox="0 0 20 22" fill="none" xmlns="http://www.w3.org/2000/svg">
<path d="M10 0.76001C7.02244 0.76001 4.6 3.18245 4.6 6.16001C4.6 9.13757 7.02244 11.56 10 11.56C12.9776 11.56 15.4 9.13757 15.4 6.16001C15.4 3.18245 12.9776 0.76001 10 0.76001ZM10 10.36C7.68412 10.36 5.8 8.47589 5.8 6.16001C5.8 3.84413 7.68412 1.96001 10 1.96001C12.3159 1.96001 14.2 3.84413 14.2 6.16001C14.2 8.47589 12.3159 10.36 10 10.36ZM16.7186 15.0878C15.2402 13.5867 13.2804 12.76 11.2 12.76H8.8C6.71968 12.76 4.75976 13.5867 3.28136 15.0878C1.8102 16.5816 1 18.5533 1 20.64C1 20.9714 1.26864 21.24 1.6 21.24H18.4C18.7314 21.24 19 20.9714 19 20.64C19 18.5533 18.1898 16.5816 16.7186 15.0878ZM2.2264 20.04C2.527 16.6366 5.36044 13.96 8.8 13.96H11.2C14.6396 13.96 17.473 16.6366 17.7736 20.04H2.2264Z" fill="#8C8C8C" stroke="#8C8C8C" stroke-width="0.3"/>
</svg>
