<svg width="23" height="22" viewBox="0 0 23 22" fill="none" xmlns="http://www.w3.org/2000/svg">
<path d="M19.19 2.5H17V1C17 0.867392 16.9473 0.740215 16.8536 0.646447C16.7598 0.552679 16.6326 0.5 16.5 0.5C16.3674 0.5 16.2402 0.552679 16.1464 0.646447C16.0527 0.740215 16 0.867392 16 1V2.5H7V1C7 0.867392 6.94732 0.740215 6.85355 0.646447C6.75979 0.552679 6.63261 0.5 6.5 0.5C6.36739 0.5 6.24021 0.552679 6.14645 0.646447C6.05268 0.740215 6 0.867392 6 1V2.5H3.81C3.06474 2.5 2.35001 2.79605 1.82303 3.32303C1.29605 3.85001 1 4.56474 1 5.31V18.69C1 19.4353 1.29605 20.15 1.82303 20.677C2.35001 21.2039 3.06474 21.5 3.81 21.5H19.19C19.9353 21.5 20.65 21.2039 21.177 20.677C21.7039 20.15 22 19.4353 22 18.69V5.31C22 4.56474 21.7039 3.85001 21.177 3.32303C20.65 2.79605 19.9353 2.5 19.19 2.5ZM3.81 3.5H19.19C19.67 3.5 20.1304 3.6907 20.4699 4.03014C20.8093 4.36958 21 4.82996 21 5.31V6.5H2V5.31C2 4.82996 2.1907 4.36958 2.53014 4.03014C2.86958 3.6907 3.32996 3.5 3.81 3.5ZM19.19 20.5H3.81C3.32996 20.5 2.86958 20.3093 2.53014 19.9699C2.1907 19.6304 2 19.17 2 18.69V7.5H21V18.69C21 19.17 20.8093 19.6304 20.4699 19.9699C20.1304 20.3093 19.67 20.5 19.19 20.5Z" fill="#8C8C8C" stroke="#8C8C8C" stroke-width="0.6"/>
<circle cx="5.07143" cy="13.7858" r="1.07143" fill="#8C8C8C" stroke="#8C8C8C" stroke-width="0.6"/>
<circle cx="5.07143" cy="16.9999" r="1.07143" fill="#8C8C8C" stroke="#8C8C8C" stroke-width="0.6"/>
<circle cx="8.28578" cy="13.7858" r="1.07143" fill="#8C8C8C" stroke="#8C8C8C" stroke-width="0.6"/>
<circle cx="8.28578" cy="16.9999" r="1.07143" fill="#8C8C8C" stroke="#8C8C8C" stroke-width="0.6"/>
<circle cx="11.4999" cy="13.7858" r="1.07143" fill="#8C8C8C" stroke="#8C8C8C" stroke-width="0.6"/>
<circle cx="11.4999" cy="16.9999" r="1.07143" fill="#8C8C8C" stroke="#8C8C8C" stroke-width="0.6"/>
<circle cx="14.7143" cy="10.5714" r="1.07143" fill="#8C8C8C" stroke="#8C8C8C" stroke-width="0.6"/>
<circle cx="14.7143" cy="13.7858" r="1.07143" fill="#8C8C8C" stroke="#8C8C8C" stroke-width="0.6"/>
<circle cx="14.7143" cy="16.9999" r="1.07143" fill="#8C8C8C" stroke="#8C8C8C" stroke-width="0.6"/>
<circle cx="17.9286" cy="13.7858" r="1.07143" fill="#8C8C8C" stroke="#8C8C8C" stroke-width="0.6"/>
<circle cx="17.9286" cy="10.5714" r="1.07143" fill="#8C8C8C" stroke="#8C8C8C" stroke-width="0.6"/>
</svg>
