<svg width="17" height="9" viewBox="0 0 17 9" fill="none" xmlns="http://www.w3.org/2000/svg">
<path d="M2.28554e-05 0.750073C-7.82298e-05 0.651571 0.0192833 0.55402 0.0569954 0.463023C0.0947056 0.372026 0.150024 0.289377 0.219772 0.219823C0.289375 0.150136 0.372034 0.0948522 0.463018 0.0571332C0.554003 0.0194142 0.651529 2.84779e-08 0.750023 3.27832e-08C0.848516 3.70884e-08 0.946043 0.0194143 1.03703 0.0571332C1.12801 0.0948522 1.21067 0.150136 1.28027 0.219823L8.25002 7.18957L15.2198 0.219824C15.5128 -0.0732387 15.9874 -0.0732387 16.2803 0.219824C16.5731 0.512886 16.5733 0.987449 16.2803 1.28032L8.78027 8.78032C8.71067 8.85001 8.62801 8.90529 8.53703 8.94301C8.44604 8.98073 8.34852 9.00015 8.25002 9.00015C8.15153 9.00015 8.054 8.98073 7.96302 8.94301C7.87203 8.90529 7.78938 8.85001 7.71977 8.78032L0.219772 1.28032C0.150024 1.21077 0.0947055 1.12812 0.0569953 1.03712C0.0192833 0.946126 -7.82384e-05 0.848575 2.28554e-05 0.750073Z" fill="black"/>
</svg>
