<svg width="40" height="40" viewBox="0 0 40 40" fill="none" xmlns="http://www.w3.org/2000/svg">
<path d="M28.38 0H11.62C4.34 0 0 4.34 0 11.62V28.38C0 35.66 4.34 40 11.62 40H28.38C35.66 40 40 35.66 40 28.38V11.62C40 4.34 35.66 0 28.38 0ZM15.94 25.8L11.44 30.3C11.14 30.6 10.76 30.74 10.38 30.74C10 30.74 9.6 30.6 9.32 30.3L7.82 28.8C7.22 28.22 7.22 27.26 7.82 26.68C8.4 26.1 9.34 26.1 9.94 26.68L10.38 27.12L13.82 23.68C14.4 23.1 15.34 23.1 15.94 23.68C16.52 24.26 16.52 25.22 15.94 25.8ZM15.94 11.8L11.44 16.3C11.14 16.6 10.76 16.74 10.38 16.74C10 16.74 9.6 16.6 9.32 16.3L7.82 14.8C7.22 14.22 7.22 13.26 7.82 12.68C8.4 12.1 9.34 12.1 9.94 12.68L10.38 13.12L13.82 9.68C14.4 9.1 15.34 9.1 15.94 9.68C16.52 10.26 16.52 11.22 15.94 11.8ZM31.12 29.24H20.62C19.8 29.24 19.12 28.56 19.12 27.74C19.12 26.92 19.8 26.24 20.62 26.24H31.12C31.5178 26.24 31.8994 26.398 32.1807 26.6793C32.462 26.9606 32.62 27.3422 32.62 27.74C32.62 28.1378 32.462 28.5194 32.1807 28.8007C31.8994 29.082 31.5178 29.24 31.12 29.24ZM31.12 15.24H20.62C19.8 15.24 19.12 14.56 19.12 13.74C19.12 12.92 19.8 12.24 20.62 12.24H31.12C31.5178 12.24 31.8994 12.398 32.1807 12.6793C32.462 12.9606 32.62 13.3422 32.62 13.74C32.62 14.1378 32.462 14.5194 32.1807 14.8007C31.8994 15.082 31.5178 15.24 31.12 15.24Z" fill="white"/>
</svg>
