<svg width="24" height="24" viewBox="0 0 24 24" fill="none" xmlns="http://www.w3.org/2000/svg">
<g clip-path="url(#clip0_97_6887)">
<path d="M5.73706 7.77051H17.2153C17.7071 7.77051 18.106 7.3716 18.106 6.87988C18.106 6.38816 17.7071 5.98926 17.2153 5.98926H5.73706C5.24534 5.98926 4.84644 6.38816 4.84644 6.87988C4.84644 7.3716 5.24534 7.77051 5.73706 7.77051ZM13.44 12.4318C13.44 11.94 13.0411 11.5411 12.5494 11.5411H5.73706C5.24534 11.5411 4.84644 11.94 4.84644 12.4318C4.84644 12.9235 5.24534 13.3224 5.73706 13.3224H12.5494C13.0411 13.3224 13.44 12.9235 13.44 12.4318Z" fill="black"/>
<path d="M22.8108 15.1739C22.9064 14.1272 22.9706 12.9075 22.972 11.4858C22.9692 8.81063 22.7447 6.85172 22.5052 5.41219C22.0861 3.04031 19.9317 0.885937 17.5598 0.466875C16.1203 0.227344 14.1614 0.0028125 11.4858 0C8.81063 0.0028125 6.85125 0.227344 5.41172 0.466875C3.04031 0.885937 0.885937 3.04031 0.466875 5.41219C0.227344 6.85172 0.00328125 8.81063 0 11.4858C0.00328125 14.1609 0.227344 16.1203 0.466875 17.5598C0.885937 19.9317 3.04031 22.0861 5.41219 22.5052C6.85172 22.7447 8.81063 22.9688 11.4862 22.972C12.9075 22.9706 14.1272 22.9064 15.1734 22.8108C16.1034 23.5547 17.2828 24 18.5662 24C21.5672 24 24.0005 21.5672 24.0005 18.5662C24.0005 17.2828 23.5552 16.1034 22.8113 15.1739H22.8108ZM11.4862 21.1908C9.37594 21.1884 7.48781 21.0441 5.71453 20.7497C4.92656 20.6086 4.12828 20.1666 3.46688 19.5052C2.80547 18.8438 2.36391 18.0459 2.22234 17.2575C1.92797 15.4861 1.78406 13.598 1.78125 11.4858C1.78359 9.37453 1.92797 7.48641 2.22234 5.71406C2.36344 4.92609 2.80547 4.12828 3.46688 3.46688C4.12828 2.80547 4.92609 2.36391 5.71453 2.22234C7.48688 1.92797 9.375 1.78406 11.4862 1.78125C13.5966 1.78359 15.4847 1.92797 17.258 2.22234C18.0459 2.36344 18.8438 2.80547 19.5056 3.46688C20.167 4.12828 20.6086 4.92609 20.7502 5.71453C21.0445 7.48781 21.1884 9.37547 21.1912 11.4862C21.1903 12.2784 21.1688 13.0383 21.1275 13.7733C20.3644 13.3645 19.4925 13.133 18.5662 13.133C15.5653 13.133 13.132 15.5658 13.132 18.5667C13.132 19.493 13.3641 20.3644 13.7723 21.1275C13.0373 21.1688 12.2775 21.1903 11.4858 21.1908H11.4862ZM18.5662 22.2188C16.552 22.2188 14.9133 20.5805 14.9133 18.5662C14.9133 16.552 16.552 14.9137 18.5662 14.9137C20.5805 14.9137 22.2192 16.552 22.2192 18.5662C22.2192 20.5805 20.5805 22.2188 18.5662 22.2188Z" fill="black"/>
<path d="M19.0445 19.6054C18.931 19.5866 18.7768 19.5688 18.5663 19.5688C18.3559 19.5688 18.2016 19.5866 18.0882 19.6054C17.9016 19.6382 17.732 19.8079 17.6987 19.9949C17.6799 20.1083 17.6621 20.2625 17.6621 20.473C17.6621 20.6835 17.6799 20.8377 17.6987 20.9511C17.7315 21.1377 17.9012 21.3074 18.0882 21.3407C18.2016 21.3594 18.3559 21.3772 18.5663 21.3772C18.7768 21.3772 18.931 21.3594 19.0445 21.3407C19.231 21.3079 19.4007 21.1382 19.434 20.9511C19.4527 20.8377 19.4705 20.6835 19.4705 20.473C19.4705 20.2625 19.4527 20.1083 19.434 19.9949C19.4012 19.8083 19.2315 19.6386 19.0445 19.6054ZM18.5659 19.0143C19.0576 19.0143 19.4565 18.6154 19.4565 18.1236V16.6377C19.4565 16.146 19.0576 15.7471 18.5659 15.7471C18.0741 15.7471 17.6752 16.146 17.6752 16.6377V18.1236C17.6752 18.6154 18.0741 19.0143 18.5659 19.0143Z" fill="black"/>
</g>
<defs>
<clipPath id="clip0_97_6887">
<rect width="24" height="24" fill="white"/>
</clipPath>
</defs>
</svg>
