<svg width="18" height="18" viewBox="0 0 18 18" fill="none" xmlns="http://www.w3.org/2000/svg">
<path d="M2.24402 8.68206C2.24402 7.45806 2.55002 6.32406 3.15602 5.28606C3.76202 4.24806 4.58402 3.42606 5.62202 2.82006C6.66002 2.21406 7.78802 1.91406 9.00602 1.91406C9.91802 1.91406 10.794 2.09406 11.628 2.44806C12.462 2.80206 13.176 3.28806 13.782 3.88806C14.388 4.48806 14.868 5.20806 15.222 6.04806C15.576 6.88806 15.756 7.75806 15.756 8.68206C15.756 9.59406 15.576 10.4701 15.222 11.3041C14.868 12.1381 14.382 12.8581 13.782 13.4581C13.182 14.0581 12.462 14.5381 11.628 14.8921C10.794 15.2461 9.92402 15.4261 9.00602 15.4261C8.08802 15.4261 7.20602 15.2461 6.37202 14.8921C5.53802 14.5381 4.81802 14.0521 4.21202 13.4521C3.60602 12.8521 3.13202 12.1321 2.77202 11.3041C2.41202 10.4761 2.24402 9.60006 2.24402 8.68206ZM3.73202 8.68206C3.73202 10.1041 4.24802 11.3401 5.28602 12.3901C6.32402 13.4281 7.56002 13.9441 9.00602 13.9441C9.95402 13.9441 10.836 13.7101 11.64 13.2361C12.444 12.7621 13.092 12.1261 13.566 11.3161C14.04 10.5061 14.28 9.63006 14.28 8.68206C14.28 7.73406 14.04 6.85206 13.566 6.04206C13.092 5.23206 12.45 4.59006 11.64 4.11606C10.83 3.64206 9.95402 3.40806 9.00602 3.40806C8.05802 3.40806 7.17602 3.64206 6.37202 4.11606C5.56802 4.59006 4.92002 5.23206 4.44002 6.04206C3.96002 6.85206 3.73202 7.73406 3.73202 8.68206ZM8.48402 8.68206V4.68606C8.48402 4.54806 8.53202 4.42806 8.62802 4.33206C8.72402 4.23606 8.84402 4.18806 8.98202 4.18806C9.12002 4.18806 9.24002 4.23606 9.33602 4.33206C9.43202 4.42806 9.48002 4.54806 9.48002 4.68606V7.81206L11.148 6.87006C11.268 6.79806 11.394 6.78006 11.526 6.81606C11.658 6.85206 11.76 6.93606 11.826 7.06206C11.898 7.18206 11.91 7.30806 11.874 7.44006C11.838 7.57206 11.76 7.68006 11.64 7.74606L9.31202 9.04806C9.22112 9.13357 9.10081 9.18083 8.97602 9.18006C8.9106 9.18114 8.84564 9.16896 8.78507 9.14423C8.72449 9.11951 8.66955 9.08277 8.62357 9.03623C8.57759 8.98969 8.54151 8.93431 8.51753 8.87343C8.49354 8.81256 8.48214 8.74746 8.48402 8.68206Z" fill="#707070"/>
</svg>
