<svg width="50" height="50" viewBox="0 0 50 50" fill="none" xmlns="http://www.w3.org/2000/svg">
<g clip-path="url(#clip0_50_24956)">
<path d="M50 25C50 38.8073 38.8073 50 25 50C11.1927 50 0 38.8073 0 25C0 11.1927 11.1927 0 25 0C38.8073 0 50 11.1927 50 25Z" fill="#FE6A16"/>
<path d="M33.166 48.6328C42.9629 45.2483 49.9999 35.9459 49.9999 24.9984C49.9999 24.7924 49.9973 24.5868 49.9923 24.3819L35.6993 10.0898L13.0923 25.5844L20.106 32.598L18.2856 33.7523L33.166 48.6328Z" fill="#F24500"/>
<path d="M28.7598 36.4888V33.9844H21.2402V36.4888C21.2402 37.0428 21.0697 37.5834 20.752 38.0372C20.4343 38.4911 19.9846 38.8362 19.4641 39.0259L7.90186 43.2365C12.373 47.4304 18.3861 50 25 50C31.614 50 37.627 47.4304 42.0982 43.2365L30.5358 39.0259C30.0153 38.8362 29.5657 38.4911 29.248 38.0372C28.9303 37.5834 28.7598 37.0428 28.7598 36.4888Z" fill="#FFBEAA"/>
<path d="M42.0982 43.2365L30.5358 39.0259C30.0153 38.8362 29.5657 38.4911 29.248 38.0372C28.9302 37.5834 28.7598 37.0428 28.7598 36.4888V33.9844H24.958V49.9996C24.9722 49.9996 24.9858 50 25 50C31.614 50 37.627 47.4304 42.0982 43.2365Z" fill="#FAA68E"/>
<path d="M37.7345 23.4287C37.7345 25.2125 36.2888 26.6587 34.505 26.6587C32.7216 26.6587 31.2755 25.2125 31.2755 23.4287C31.2755 21.6454 32.7216 20.1992 34.505 20.1992C36.2888 20.1992 37.7345 21.6454 37.7345 23.4287ZM18.7244 23.4287C18.7244 25.2125 17.2783 26.6587 15.4949 26.6587C13.7111 26.6587 12.2654 25.2125 12.2654 23.4287C12.2654 21.6454 13.7111 20.1992 15.4949 20.1992C17.2783 20.1992 18.7244 21.6454 18.7244 23.4287Z" fill="#FFBEAA"/>
<path d="M29.2999 35.519L27.1434 36.6269C26.4803 36.9676 25.7455 37.1453 25 37.1453C24.2544 37.1453 23.5196 36.9676 22.8565 36.6269L20.7 35.519C17.5041 33.8771 15.4949 30.5862 15.4949 26.9932V18.5875C15.4949 13.3377 19.7501 9.08203 25 9.08203C30.2498 9.08203 34.505 13.3377 34.505 18.5871V26.9932C34.505 30.5862 32.4959 33.8771 29.3 35.519H29.2999Z" fill="#FFCDBE"/>
<path d="M25 9.08203C24.9858 9.08203 24.9722 9.08242 24.958 9.08242V37.1437C25.7176 37.1511 26.4677 36.9737 27.1436 36.6269L29.2999 35.519C32.4959 33.8771 34.5051 30.5862 34.5051 26.9932V18.5871C34.5051 13.3377 30.2498 9.08203 25 9.08203Z" fill="#FFBEAA"/>
<path d="M12.6953 7.97695V16.3266C12.6953 17.9531 13.3915 19.4172 14.502 20.4377V25.148C14.502 26.2269 15.3763 27.1012 16.4551 27.1012V21.6031C17.0415 21.8058 17.6577 21.9091 18.2781 21.909H23.291C26.374 21.909 28.8738 19.4096 28.8738 16.3262V8.95312C28.8738 8.41406 28.4366 7.97656 27.8973 7.97656H12.6953V7.97695Z" fill="#414952"/>
<path d="M30.6893 7.97656H29.7039C29.3049 7.97656 28.9573 8.19141 28.767 8.51064C28.6057 8.19404 28.2772 7.97656 27.8973 7.97656H24.958V21.6553C26.7285 21.1021 28.1196 19.6914 28.6457 17.9097C28.9104 20.1614 30.8243 21.909 33.1471 21.909C33.2813 21.909 33.4137 21.9018 33.5449 21.8903V27.1008C34.6237 27.1008 35.498 26.2265 35.498 25.1477V21.2524C36.8068 20.4571 37.6809 19.0182 37.6809 17.3748V14.9678C37.6809 11.1064 34.5509 7.97656 30.6893 7.97656Z" fill="#333940"/>
<path d="M32.5195 39.3555L24.9675 43.0012L17.4804 39.3555L7.60571 42.9543C12.1054 47.3148 18.2388 50 25 50C31.6711 50 37.7315 47.3865 42.2145 43.1282L32.5195 39.3555Z" fill="#C8FFFA"/>
<path d="M25 50C31.6711 50 37.7315 47.3865 42.2145 43.1282L32.5195 39.3555L24.9675 43.0012L25 50Z" fill="#9BF5F0"/>
<path d="M26.5705 47.1844H23.4294L22.4529 43.0664H27.547L26.5705 47.1844Z" fill="#4A7AFF"/>
<path d="M23.0586 49.9244C23.6995 49.974 24.3465 49.9996 24.9999 49.9996C25.6533 49.9996 26.3003 49.9736 26.9412 49.9244L26.5704 47.1836H23.429L23.0586 49.9244Z" fill="#2864F0"/>
<path d="M30.3059 38.25L25.0325 43.0023L27.6692 46.6484L32.5196 39.3566L30.3059 38.25Z" fill="#E9EDF5"/>
<path d="M19.6941 38.25L24.9676 43.0023L22.3309 46.6484L17.4805 39.3566L19.6941 38.25Z" fill="white"/>
<path d="M42.3034 43.0432L32.5194 39.3555L29.0957 49.6644C34.1788 48.8262 38.7446 46.4565 42.3034 43.0432Z" fill="#27488F"/>
<path d="M29.0957 49.6644C30.3626 49.4556 31.6115 49.149 32.8311 48.7473L32.5194 47.184L35.0062 46.4355V40.2928L32.5194 39.3555L29.0957 49.6644Z" fill="#12254C"/>
<path d="M7.60571 42.9543L17.4804 39.3555L20.9042 49.6644C15.821 48.8262 11.2182 46.4478 7.60571 42.9543Z" fill="#27488F"/>
<path d="M20.9042 49.6644C19.6373 49.4556 18.3884 49.149 17.1688 48.7473L17.4805 47.184L14.9937 46.4355V40.2928L17.4805 39.3555L20.9042 49.6644Z" fill="#1B3B6B"/>
</g>
<defs>
<clipPath id="clip0_50_24956">
<rect width="50" height="50" fill="white"/>
</clipPath>
</defs>
</svg>
