<svg width="21" height="21" viewBox="0 0 21 21" fill="none" xmlns="http://www.w3.org/2000/svg">
<path d="M18.8126 16.1873C17.9161 16.1873 17.1478 16.7275 16.8095 17.4998H12.9643C12.6029 16.4821 11.6416 15.75 10.5 15.75C9.35839 15.75 8.3979 16.4821 8.03565 17.4998H4.19055C3.85219 16.7275 3.08385 16.1873 2.18741 16.1873C1.90007 16.1873 1.61554 16.2439 1.35008 16.3539C1.08463 16.4639 0.843441 16.6251 0.640307 16.8284C0.437173 17.0316 0.276072 17.2729 0.166206 17.5384C0.0563396 17.8039 -0.000137678 18.0884 2.52033e-07 18.3758C2.52033e-07 19.5833 0.979125 20.5624 2.18741 20.5624C3.08464 20.5624 3.85298 20.0214 4.19055 19.2499H8.03565C8.39711 20.2668 9.35839 21 10.5 21C11.6416 21 12.6029 20.2668 12.9643 19.2499H16.8095C17.147 20.0214 17.9154 20.5624 18.8126 20.5624C19.0998 20.5625 19.3842 20.506 19.6496 20.3961C19.9149 20.2863 20.1561 20.1252 20.3592 19.9222C20.5623 19.7191 20.7235 19.478 20.8334 19.2127C20.9434 18.9474 21 18.663 21 18.3758C21.0001 18.0884 20.9437 17.8039 20.8338 17.5384C20.7239 17.2729 20.5628 17.0316 20.3597 16.8284C20.1566 16.6251 19.9154 16.4639 19.6499 16.3539C19.3845 16.2439 19.0999 16.1873 18.8126 16.1873ZM10.5 19.2499C10.3851 19.25 10.2713 19.2275 10.1651 19.1835C10.0589 19.1396 9.96238 19.0751 9.88111 18.9939C9.79985 18.9126 9.73541 18.8161 9.69147 18.7099C9.64754 18.6037 9.62498 18.4899 9.62509 18.375C9.62509 17.8912 10.0162 17.4998 10.5 17.4998C10.9838 17.4998 11.3749 17.8912 11.3749 18.375C11.375 18.4899 11.3525 18.6037 11.3085 18.7099C11.2646 18.8161 11.2002 18.9126 11.1189 18.9939C11.0376 19.0751 10.9411 19.1396 10.8349 19.1835C10.7287 19.2275 10.6149 19.25 10.5 19.2499ZM10.5 0C7.11874 0 4.37509 2.7405 4.37509 6.12491C4.37509 7.81489 5.06021 9.34605 6.16954 10.4554L10.5 14.4372L14.8315 10.4541C15.4014 9.88627 15.8532 9.2113 16.161 8.46807C16.4688 7.72484 16.6265 6.92804 16.6249 6.1236C16.6249 2.74365 13.8831 0 10.5 0ZM13.5949 9.21585L10.5 12.06L7.35394 9.16729C6.58061 8.3916 6.12491 7.29277 6.12491 6.12491C6.12491 3.7128 8.08789 1.74983 10.5 1.74983C12.9121 1.74983 14.8751 3.71175 14.8751 6.1236C14.8772 6.69814 14.7651 7.26737 14.5454 7.79822C14.3256 8.32907 14.0025 8.81095 13.5949 9.21585Z" fill="#8C8C8C"/>
<path d="M10.5 3.50195C9.05074 3.50195 7.875 4.67743 7.875 6.12695C7.875 7.57648 9.05074 8.75195 10.5 8.75195C11.95 8.75195 13.125 7.57648 13.125 6.12695C13.125 4.67743 11.95 3.50195 10.5 3.50195ZM10.5 7.00187C10.0162 7.00187 9.62509 6.61022 9.62509 6.12695C9.62509 6.01206 9.64772 5.89829 9.69169 5.79214C9.73565 5.68599 9.8001 5.58954 9.88134 5.5083C9.96259 5.42705 10.059 5.36261 10.1652 5.31864C10.2713 5.27467 10.3851 5.25204 10.5 5.25204C10.6149 5.25204 10.7287 5.27467 10.8348 5.31864C10.941 5.36261 11.0374 5.42705 11.1187 5.5083C11.1999 5.58954 11.2643 5.68599 11.3083 5.79214C11.3523 5.89829 11.3749 6.01206 11.3749 6.12695C11.375 6.24187 11.3524 6.35567 11.3085 6.46185C11.2645 6.56803 11.2001 6.66451 11.1188 6.74576C11.0376 6.82702 10.9411 6.89146 10.8349 6.93541C10.7287 6.97935 10.6149 7.00193 10.5 7.00187Z" fill="#8C8C8C"/>
</svg>
