<svg width="42" height="40" viewBox="0 0 42 40" fill="none" xmlns="http://www.w3.org/2000/svg">
<ellipse cx="20" cy="19.5" rx="20" ry="19.5" fill="#EFEFEF"/>
<path d="M31.1279 16.2024V17.6667H7.31836V15.9286C7.31836 13.2024 9.53265 11 12.2588 11H28.3184L26.3184 13C26.3184 14.5119 26.8065 16.4762 28.3184 16.4762L29.9017 16.4762C30.3779 16.4762 30.7827 16.3929 31.1279 16.2024Z" fill="#162238"/>
<path d="M7.31836 17.666V26.547C7.31836 29.2732 9.53265 31.4756 12.2588 31.4756H26.1874C28.9136 31.4756 31.1279 29.2732 31.1279 26.547V17.666H7.31836ZM14.4612 27.4875H12.0803C11.5922 27.4875 11.1874 27.0827 11.1874 26.5946C11.1874 26.1065 11.5922 25.7017 12.0803 25.7017H14.4612C14.9493 25.7017 15.3541 26.1065 15.3541 26.5946C15.3541 27.0827 14.9493 27.4875 14.4612 27.4875ZM22.1993 27.4875H17.4374C16.9493 27.4875 16.5446 27.0827 16.5446 26.5946C16.5446 26.1065 16.9493 25.7017 17.4374 25.7017H22.1993C22.6874 25.7017 23.0922 26.1065 23.0922 26.5946C23.0922 27.0827 22.6874 27.4875 22.1993 27.4875Z" fill="#D92D30"/>
<path d="M28.4834 9C26.1868 9 24.3184 10.8684 24.3184 13.165C24.3184 15.4616 26.1868 17.33 28.4834 17.33C30.7799 17.33 32.6484 15.4616 32.6484 13.165C32.6484 10.8684 30.7799 9 28.4834 9ZM29.3184 13.2884C29.3184 13.544 29.3184 14 28.8184 14H27.2381C26.8184 14 26.7753 13.544 26.7753 13.2884C26.7753 13.0328 26.9825 12.8256 27.2381 12.8256H28.1748V11.8804C28.1748 11.6248 28.382 11.4176 28.6376 11.4176C28.8932 11.4176 29.3184 11.6248 29.3184 11.8804V13.2884Z" fill="#D92D30"/>
</svg>
