<svg width="40" height="39" viewBox="0 0 40 39" fill="none" xmlns="http://www.w3.org/2000/svg">
<ellipse cx="20" cy="19.5" rx="20" ry="19.5" fill="#EFEFEF"/>
<path d="M30.5833 16.3333H27.0833C25.5714 16.3333 24.6666 15.4286 24.6666 13.9167V10.4167C24.6666 8.90476 25.5714 8 27.0833 8H30.5833C32.0952 8 33 8.90476 33 10.4167V13.9167C33 15.4286 32.0952 16.3333 30.5833 16.3333ZM30.8452 12.3929C30.7023 12.25 30.5119 12.1786 30.3214 12.1786C30.1309 12.1786 29.9404 12.25 29.7976 12.3929L29.5833 12.6071V9.94048C29.5833 9.52381 29.25 9.19048 28.8333 9.19048C28.4166 9.19048 28.0833 9.52381 28.0833 9.94048V12.6071L27.869 12.3929C27.5833 12.1071 27.1071 12.1071 26.8214 12.3929C26.5357 12.6786 26.5357 13.1548 26.8214 13.4405L28.3095 14.9286C28.369 14.9881 28.4523 15.0357 28.5357 15.0714C28.5595 15.0833 28.5833 15.0833 28.6071 15.0952C28.6666 15.1191 28.7262 15.131 28.7976 15.131H28.869C28.9523 15.131 29.0238 15.1191 29.1071 15.0833H29.1309C29.2143 15.0476 29.2857 15 29.3452 14.9405C29.3571 14.9286 29.3571 14.9286 29.369 14.9286L30.8571 13.4405C31.1428 13.1548 31.1428 12.6786 30.8452 12.3929Z" fill="#348B61"/>
<path d="M31.8096 16.0598V17.5241H8V15.786C8 13.0598 10.2143 10.8574 12.9405 10.8574H24.6667V13.9169C24.6667 15.4289 25.5715 16.3336 27.0834 16.3336H30.5834C31.0596 16.3336 31.4643 16.2503 31.8096 16.0598Z" fill="#162238"/>
<path d="M8 17.5234V26.4044C8 29.1306 10.2143 31.333 12.9405 31.333H26.8691C29.5953 31.333 31.8096 29.1306 31.8096 26.4044V17.5234H8ZM15.1429 27.3449H12.7619C12.2738 27.3449 11.8691 26.9401 11.8691 26.452C11.8691 25.9639 12.2738 25.5592 12.7619 25.5592H15.1429C15.631 25.5592 16.0357 25.9639 16.0357 26.452C16.0357 26.9401 15.631 27.3449 15.1429 27.3449ZM22.881 27.3449H18.1191C17.631 27.3449 17.2262 26.9401 17.2262 26.452C17.2262 25.9639 17.631 25.5592 18.1191 25.5592H22.881C23.3691 25.5592 23.7738 25.9639 23.7738 26.452C23.7738 26.9401 23.3691 27.3449 22.881 27.3449Z" fill="#348B61"/>
</svg>
