<svg width="32" height="40" viewBox="0 0 32 40" fill="none" xmlns="http://www.w3.org/2000/svg">
<path d="M28.2017 2.19531H26.6399C27.3117 3.42876 27.6939 4.84244 27.6939 6.34385C27.6939 8.28609 26.1169 9.86617 24.1784 9.86617H7.53867C5.60026 9.86617 4.02323 8.28601 4.02323 6.34385C4.02323 4.84244 4.4054 3.42884 5.07724 2.19531H3.51544C1.57703 2.19531 0 3.77547 0 5.71763V36.4792C0 38.4214 1.57703 40.0016 3.51544 40.0016H28.2017C30.1401 40.0016 31.7171 38.4214 31.7171 36.4792V5.71763C31.7171 3.77539 30.1401 2.19531 28.2017 2.19531ZM11.7394 33.2914L9.1875 35.8483C8.72994 36.3068 7.98795 36.3069 7.53032 35.8483L6.28038 34.596C5.82275 34.1375 5.82275 33.3941 6.28038 32.9356C6.73793 32.477 7.47993 32.477 7.93756 32.9356L8.35894 33.3578L10.0823 31.6311C10.5398 31.1726 11.2818 31.1726 11.7395 31.6311C12.197 32.0896 12.197 32.8329 11.7394 33.2914ZM11.7394 26.5598L9.1875 29.1167C8.72994 29.5752 7.98795 29.5753 7.53032 29.1167L6.28038 27.8644C5.82275 27.4059 5.82275 26.6625 6.28038 26.204C6.73793 25.7454 7.47993 25.7454 7.93756 26.204L8.35894 26.6262L10.0823 24.8995C10.5398 24.441 11.2818 24.441 11.7395 24.8995C12.197 25.3579 12.197 26.1013 11.7394 26.5598ZM9.49998 21.8113C9.04243 22.2698 8.30043 22.2698 7.8428 21.8113C7.38517 21.3528 7.38517 20.6094 7.8428 20.1509L12.0613 15.9241C12.5189 15.4655 13.2609 15.4655 13.7185 15.9241L17.2647 19.4771L20.0604 16.6759H19.9208C19.2737 16.6759 18.749 16.1502 18.749 15.5018C18.749 14.8534 19.2737 14.3277 19.9208 14.3277C23.1477 14.3277 23.4228 14.1894 23.8639 14.8501C24.133 15.253 24.0613 15.3893 24.0613 18.4763C24.0613 19.1247 23.5366 19.6504 22.8894 19.6504C22.2423 19.6504 21.7176 19.1247 21.7176 18.4763V18.3364L18.0933 21.9677C17.6357 22.4262 16.8937 22.4263 16.4361 21.9677L12.89 18.4147L9.49998 21.8113ZM24.53 34.9138H15.0773C14.4302 34.9138 13.9055 34.3881 13.9055 33.7397C13.9055 33.0913 14.4302 32.5656 15.0773 32.5656H24.53C25.1771 32.5656 25.7018 33.0913 25.7018 33.7397C25.7018 34.3881 25.1771 34.9138 24.53 34.9138ZM24.53 28.1822H15.0773C14.4302 28.1822 13.9055 27.6565 13.9055 27.0081C13.9055 26.3597 14.4302 25.834 15.0773 25.834H24.53C25.1771 25.834 25.7018 26.3597 25.7018 27.0081C25.7018 27.6565 25.1771 28.1822 24.53 28.1822Z" fill="white"/>
<path d="M19.0225 0H12.6947C9.20555 0 6.36694 2.84423 6.36694 6.34022C6.36694 6.98862 6.8916 7.5143 7.53876 7.5143H24.1785C24.8257 7.5143 25.3503 6.98862 25.3503 6.34022C25.3503 2.84423 22.5117 0 19.0225 0Z" fill="white"/>
</svg>
