<svg width="18" height="18" viewBox="0 0 18 18" fill="none" xmlns="http://www.w3.org/2000/svg">
<path d="M5.625 2.00191C5.32663 2.00191 5.04048 2.10723 4.8295 2.29472C4.61853 2.4822 4.5 2.73649 4.5 3.00163C4.5 3.26678 4.61853 3.52106 4.8295 3.70855C5.04048 3.89603 5.32663 4.00136 5.625 4.00136C5.92337 4.00136 6.20952 3.89603 6.4205 3.70855C6.63147 3.52106 6.75 3.26678 6.75 3.00163C6.75 2.73649 6.63147 2.4822 6.4205 2.29472C6.20952 2.10723 5.92337 2.00191 5.625 2.00191ZM2.44125 2.00191C2.67368 1.41653 3.10471 0.909636 3.67492 0.55109C4.24514 0.192543 4.92647 0 5.625 0C6.32353 0 7.00486 0.192543 7.57508 0.55109C8.14529 0.909636 8.57632 1.41653 8.80875 2.00191H16.875C17.1734 2.00191 17.4595 2.10723 17.6705 2.29472C17.8815 2.4822 18 2.73649 18 3.00163C18 3.26678 17.8815 3.52106 17.6705 3.70855C17.4595 3.89603 17.1734 4.00136 16.875 4.00136H8.80875C8.57632 4.58673 8.14529 5.09363 7.57508 5.45218C7.00486 5.81072 6.32353 6.00327 5.625 6.00327C4.92647 6.00327 4.24514 5.81072 3.67492 5.45218C3.10471 5.09363 2.67368 4.58673 2.44125 4.00136H1.125C0.826631 4.00136 0.540484 3.89603 0.329505 3.70855C0.118527 3.52106 0 3.26678 0 3.00163C0 2.73649 0.118527 2.4822 0.329505 2.29472C0.540484 2.10723 0.826631 2.00191 1.125 2.00191H2.44125ZM12.375 8.00027C12.0766 8.00027 11.7905 8.1056 11.5795 8.29309C11.3685 8.48057 11.25 8.73486 11.25 9C11.25 9.26514 11.3685 9.51943 11.5795 9.70691C11.7905 9.8944 12.0766 9.99973 12.375 9.99973C12.6734 9.99973 12.9595 9.8944 13.1705 9.70691C13.3815 9.51943 13.5 9.26514 13.5 9C13.5 8.73486 13.3815 8.48057 13.1705 8.29309C12.9595 8.1056 12.6734 8.00027 12.375 8.00027ZM9.19125 8.00027C9.42368 7.4149 9.85471 6.908 10.4249 6.54946C10.9951 6.19091 11.6765 5.99837 12.375 5.99837C13.0735 5.99837 13.7549 6.19091 14.3251 6.54946C14.8953 6.908 15.3263 7.4149 15.5588 8.00027H16.875C17.1734 8.00027 17.4595 8.1056 17.6705 8.29309C17.8815 8.48057 18 8.73486 18 9C18 9.26514 17.8815 9.51943 17.6705 9.70691C17.4595 9.8944 17.1734 9.99973 16.875 9.99973H15.5588C15.3263 10.5851 14.8953 11.092 14.3251 11.4505C13.7549 11.8091 13.0735 12.0016 12.375 12.0016C11.6765 12.0016 10.9951 11.8091 10.4249 11.4505C9.85471 11.092 9.42368 10.5851 9.19125 9.99973H1.125C0.826631 9.99973 0.540484 9.8944 0.329505 9.70691C0.118527 9.51943 0 9.26514 0 9C0 8.73486 0.118527 8.48057 0.329505 8.29309C0.540484 8.1056 0.826631 8.00027 1.125 8.00027H9.19125ZM5.625 13.9986C5.32663 13.9986 5.04048 14.104 4.8295 14.2915C4.61853 14.4789 4.5 14.7332 4.5 14.9984C4.5 15.2635 4.61853 15.5178 4.8295 15.7053C5.04048 15.8928 5.32663 15.9981 5.625 15.9981C5.92337 15.9981 6.20952 15.8928 6.4205 15.7053C6.63147 15.5178 6.75 15.2635 6.75 14.9984C6.75 14.7332 6.63147 14.4789 6.4205 14.2915C6.20952 14.104 5.92337 13.9986 5.625 13.9986ZM2.44125 13.9986C2.67368 13.4133 3.10471 12.9064 3.67492 12.5478C4.24514 12.1893 4.92647 11.9967 5.625 11.9967C6.32353 11.9967 7.00486 12.1893 7.57508 12.5478C8.14529 12.9064 8.57632 13.4133 8.80875 13.9986H16.875C17.1734 13.9986 17.4595 14.104 17.6705 14.2915C17.8815 14.4789 18 14.7332 18 14.9984C18 15.2635 17.8815 15.5178 17.6705 15.7053C17.4595 15.8928 17.1734 15.9981 16.875 15.9981H8.80875C8.57632 16.5835 8.14529 17.0904 7.57508 17.4489C7.00486 17.8075 6.32353 18 5.625 18C4.92647 18 4.24514 17.8075 3.67492 17.4489C3.10471 17.0904 2.67368 16.5835 2.44125 15.9981H1.125C0.826631 15.9981 0.540484 15.8928 0.329505 15.7053C0.118527 15.5178 0 15.2635 0 14.9984C0 14.7332 0.118527 14.4789 0.329505 14.2915C0.540484 14.104 0.826631 13.9986 1.125 13.9986H2.44125Z" fill="#162238"/>
</svg>
