<svg width="40" height="37" viewBox="0 0 40 37" fill="none" xmlns="http://www.w3.org/2000/svg">
<path fill-rule="evenodd" clip-rule="evenodd" d="M40 20.6681V13.9536H0V29.3026C0 31.153 0.735048 32.9275 2.04344 34.236C3.35183 35.5444 5.1264 36.2794 6.97674 36.2794H23.2577C21.8125 35.1971 20.6396 33.7928 19.8319 32.1781C19.0242 30.5633 18.604 28.7825 18.6047 26.977C18.6066 23.8937 19.8323 20.9372 22.0126 18.7569C24.1928 16.5767 27.1493 15.351 30.2326 15.349C34.3256 15.349 37.9274 17.4681 40 20.6681ZM14.8837 0V4.65121C14.8837 5.15829 14.7653 5.65836 14.5378 6.11157C14.3103 6.56478 13.9802 6.95859 13.5736 7.26162C13.167 7.56466 12.6953 7.76854 12.196 7.85701C11.6967 7.94549 11.1836 7.91612 10.6977 7.77124V0H6.97674C5.1264 0 3.35183 0.735055 2.04344 2.04346C0.735048 3.35187 0 5.12644 0 6.97681V11.1629H40V6.97681C40 5.12644 39.265 3.35187 37.9566 2.04346C36.6482 0.735055 34.8736 0 33.0233 0H31.6279V4.65121C31.6279 5.15829 31.5094 5.65836 31.282 6.11157C31.0545 6.56478 30.7243 6.95859 30.3178 7.26162C29.9112 7.56466 29.4395 7.76854 28.9402 7.85701C28.4409 7.94549 27.9278 7.91612 27.4419 7.77124V0H14.8837Z" fill="white"/>
</svg>
