<svg width="40" height="40" viewBox="0 0 40 40" fill="none" xmlns="http://www.w3.org/2000/svg">
<path fill-rule="evenodd" clip-rule="evenodd" d="M10.2327 1.39536V7.90705C10.2327 8.27712 10.3797 8.63204 10.6414 8.89372C10.903 9.1554 11.2579 9.30241 11.628 9.30241C11.9981 9.30241 12.353 9.1554 12.6147 8.89372C12.8764 8.63204 13.0234 8.27712 13.0234 7.90705V1.39536C13.0234 1.02529 12.8764 0.670373 12.6147 0.408692C12.353 0.147011 11.9981 0 11.628 0C11.2579 0 10.903 0.147011 10.6414 0.408692C10.3797 0.670373 10.2327 1.02529 10.2327 1.39536ZM26.9769 1.39536V7.90705C26.9769 8.27712 27.1239 8.63204 27.3855 8.89372C27.6472 9.1554 28.0021 9.30241 28.3722 9.30241C28.7423 9.30241 29.0972 9.1554 29.3589 8.89372C29.6205 8.63204 29.7675 8.27712 29.7675 7.90705V1.39536C29.7675 1.02529 29.6205 0.670373 29.3589 0.408692C29.0972 0.147011 28.7423 0 28.3722 0C28.0021 0 27.6472 0.147011 27.3855 0.408692C27.1239 0.670373 26.9769 1.02529 26.9769 1.39536Z" fill="white"/>
<path fill-rule="evenodd" clip-rule="evenodd" d="M40 23.9259V17.2114H0V32.5604C0 34.4108 0.735048 36.1854 2.04344 37.4938C3.35183 38.8022 5.1264 39.5372 6.97674 39.5372H23.2577C21.8125 38.4549 20.6396 37.0506 19.8319 35.4359C19.0242 33.8211 18.604 32.0403 18.6047 30.2348C18.6066 27.1515 19.8323 24.195 22.0126 22.0147C24.1928 19.8345 27.1493 18.6088 30.2326 18.6068C34.3256 18.6068 37.9274 20.7259 40 23.9259ZM14.8837 3.25781V7.90902C14.8837 8.4161 14.7653 8.91617 14.5378 9.36938C14.3103 9.82259 13.9802 10.2164 13.5736 10.5194C13.167 10.8225 12.6953 11.0263 12.196 11.1148C11.6967 11.2033 11.1836 11.1739 10.6977 11.029V3.25781H6.97674C5.1264 3.25781 3.35183 3.99287 2.04344 5.30127C0.735048 6.60968 0 8.38426 0 10.2346V14.4207H40V10.2346C40 8.38426 39.265 6.60968 37.9566 5.30127C36.6482 3.99287 34.8736 3.25781 33.0233 3.25781H31.6279V7.90902C31.6279 8.4161 31.5094 8.91617 31.282 9.36938C31.0545 9.82259 30.7243 10.2164 30.3178 10.5194C29.9112 10.8225 29.4395 11.0263 28.9402 11.1148C28.4409 11.2033 27.9278 11.1739 27.4419 11.029V3.25781H14.8837Z" fill="white"/>
<path fill-rule="evenodd" clip-rule="evenodd" d="M30.2325 20.4648C24.8409 20.4648 20.4651 24.8407 20.4651 30.2324C20.4651 35.6241 24.8409 39.9999 30.2325 39.9999C35.6242 39.9999 40 35.6241 40 30.2324C40 24.8407 35.6242 20.4648 30.2325 20.4648ZM25.5256 30.7533L28.3162 33.544C28.4457 33.6736 28.5994 33.7765 28.7686 33.8466C28.9378 33.9168 29.1191 33.9529 29.3023 33.9529C29.4855 33.9529 29.6668 33.9168 29.836 33.8466C30.0052 33.7765 30.1589 33.6736 30.2883 33.544L34.9395 28.8928C35.069 28.7633 35.1717 28.6096 35.2418 28.4404C35.3119 28.2712 35.3479 28.0899 35.3479 27.9068C35.3479 27.7236 35.3119 27.5423 35.2418 27.3731C35.1717 27.2039 35.069 27.0502 34.9395 26.9207C34.81 26.7912 34.6563 26.6885 34.4871 26.6184C34.3179 26.5484 34.1366 26.5123 33.9535 26.5123C33.7703 26.5123 33.589 26.5484 33.4198 26.6184C33.2506 26.6885 33.0969 26.7912 32.9674 26.9207L29.3023 30.584L27.4976 28.7812C27.3682 28.6517 27.2144 28.549 27.0452 28.4789C26.8761 28.4088 26.6947 28.3728 26.5116 28.3728C26.3285 28.3728 26.1471 28.4088 25.978 28.4789C25.8088 28.549 25.655 28.6517 25.5256 28.7812C25.3961 28.9107 25.2933 29.0644 25.2233 29.2336C25.1532 29.4028 25.1171 29.5841 25.1171 29.7673C25.1171 29.9504 25.1532 30.1317 25.2233 30.3009C25.2933 30.4701 25.3961 30.6238 25.5256 30.7533Z" fill="white"/>
</svg>
